<?xml version="1.0" encoding="UTF-8"?>
<svg version="1.1" xmlns="http://www.w3.org/2000/svg" width="1313" height="1313">
<path d="M0 0 C433.29 0 866.58 0 1313 0 C1313 433.29 1313 866.58 1313 1313 C879.71 1313 446.42 1313 0 1313 C0 879.71 0 446.42 0 0 Z " fill="#FEFEFE" transform="translate(0,0)"/>
<path d="M0 0 C2.94601095 1.4702104 5.44007332 3.41572963 7.99609375 5.46484375 C9.16782686 6.38559727 10.3397057 7.30616535 11.51171875 8.2265625 C12.40213867 8.93111572 12.40213867 8.93111572 13.31054688 9.64990234 C15.93573491 11.71852119 18.59183383 13.74622861 21.24609375 15.77734375 C24.92893901 18.60206126 28.59630558 21.44516415 32.24609375 24.3125 C47.53729292 36.31393233 62.94723962 47.79348421 79.72387695 57.65332031 C81.41838808 58.65057103 83.10618823 59.65925289 84.78979492 60.67480469 C92.20162035 65.09805985 99.78169067 68.92221975 107.62109375 72.52734375 C108.22876587 72.80803711 108.83643799 73.08873047 109.46252441 73.37792969 C119.15289393 77.84446061 128.9053381 81.94656599 139.0234375 85.34375 C140.91665517 85.97966765 142.80058719 86.64304833 144.68359375 87.30859375 C152.9287009 90.08065564 161.33142663 92.16017987 169.80041504 94.13525391 C171.63512807 94.56391764 173.46755083 95.00235009 175.29980469 95.44140625 C202.20968213 101.5363482 228.66662764 102.67210735 256.13482666 102.76556396 C260.76903116 102.78551448 265.40303996 102.82743323 270.03710938 102.8671875 C279.04420884 102.94137729 288.05126237 102.9923302 297.05859375 103.02734375 C297.08151519 140.95619908 297.09911994 178.88505337 297.10965908 216.81391424 C297.11090969 221.2983875 297.11220402 225.78286074 297.11352539 230.26733398 C297.1137877 231.16005914 297.11405001 232.05278429 297.11432027 232.97256172 C297.11866385 247.40083282 297.12654417 261.8290999 297.13574655 276.25736862 C297.14511961 291.07756309 297.15065708 305.89775547 297.15268224 320.71795279 C297.1540499 329.85243883 297.15835929 338.98691353 297.16651022 348.12139607 C297.17182278 354.39718452 297.17338785 360.67296717 297.17209513 366.9487577 C297.17145876 370.56192192 297.17238894 374.17506642 297.17779922 377.78822708 C297.23011603 414.6115592 297.23011603 414.6115592 294.30859375 432.52734375 C294.04743774 434.16920654 294.04743774 434.16920654 293.78100586 435.84423828 C291.86317068 447.63837573 289.58521737 459.34948603 287.05859375 471.02734375 C286.7948999 472.27330322 286.7948999 472.27330322 286.52587891 473.54443359 C280.21910259 502.83322349 269.02412002 532.51585634 255.11523438 559.00390625 C253.98977978 561.1591206 252.89069863 563.32663775 251.79296875 565.49609375 C235.09927481 598.20370977 213.37291151 627.69192829 188.42480469 654.54345703 C187.06147941 656.02420954 185.71787155 657.52064701 184.37890625 659.0234375 C177.68297381 666.51070741 170.5541184 673.34622646 163.05859375 680.02734375 C162.49188965 680.5387793 161.92518555 681.05021484 161.34130859 681.57714844 C139.10002774 701.61490077 114.22809702 718.55580778 88.05859375 733.02734375 C86.9924585 733.62023193 86.9924585 733.62023193 85.90478516 734.22509766 C63.78181362 746.45755841 40.22472842 756.33554295 16.15234375 764.03125 C14.24349246 764.64584227 12.34436806 765.2930271 10.46484375 765.9921875 C0.36386978 769.74546036 -7.57987471 767.60779592 -17.44140625 764.15234375 C-18.62557129 763.7452417 -19.80973633 763.33813965 -21.02978516 762.91870117 C-74.94929859 744.13835168 -124.27187869 716.42258684 -166.23828125 677.51171875 C-168.45984714 675.46993276 -170.70959643 673.48590092 -173.00390625 671.52734375 C-180.2456471 665.23608138 -187.00611661 658.321033 -193.22265625 651.01953125 C-194.42488586 649.62603784 -195.65688066 648.25792485 -196.91015625 646.91015625 C-204.19102081 639.07531287 -210.5415215 630.5806611 -216.94140625 622.02734375 C-217.42931641 621.38071777 -217.91722656 620.7340918 -218.41992188 620.06787109 C-225.74579018 610.35324283 -232.45212663 600.31676571 -238.94140625 590.02734375 C-239.32458008 589.42615723 -239.70775391 588.8249707 -240.10253906 588.20556641 C-244.89272946 580.68756945 -249.05573318 573.04337962 -252.94140625 565.02734375 C-253.54948712 563.82420516 -254.16029436 562.62244166 -254.7734375 561.421875 C-266.93623854 537.57074078 -277.04469557 512.93570989 -283.94140625 487.02734375 C-284.17424316 486.16415527 -284.40708008 485.3009668 -284.64697266 484.41162109 C-294.32782563 448.21064068 -298.46088918 412.26983574 -298.28960311 374.86580396 C-298.27629527 371.1948965 -298.28105592 367.523998 -298.28330994 363.85307312 C-298.28486141 357.53534551 -298.2756796 351.21771288 -298.25859642 344.90000916 C-298.23391539 335.76638007 -298.22637193 326.63279556 -298.22263245 317.49913675 C-298.21611278 302.67013433 -298.19627541 287.84118223 -298.16772461 273.01220703 C-298.1400665 258.63167569 -298.11889095 244.25115814 -298.10620117 229.87060547 C-298.105413 228.97992695 -298.10462483 228.08924843 -298.10381278 227.17157966 C-298.09989685 222.7020346 -298.09610592 218.23248944 -298.09237707 213.76294422 C-298.06142129 176.85104193 -298.00871021 139.9391968 -297.94140625 103.02734375 C-297.09205002 103.02369812 -296.24269379 103.02005249 -295.36759949 103.01629639 C-287.18139691 102.977702 -278.99556438 102.92008984 -270.80962658 102.84344101 C-266.60573936 102.80468646 -262.40203913 102.77216059 -258.19799805 102.75634766 C-240.36234611 102.68433635 -222.7077702 102.23774724 -204.9765625 100.1875 C-204.272983 100.10727852 -203.5694035 100.02705704 -202.8445034 99.9444046 C-176.17091696 96.83214043 -148.42385179 90.16750415 -123.94140625 79.02734375 C-122.68727538 78.49355515 -121.43197213 77.96251623 -120.17578125 77.43359375 C-88.12988094 63.79091861 -59.86792506 45.58642327 -32.88769531 23.75537109 C-26.62169097 18.71131983 -20.18210681 13.90399993 -13.72949219 9.10229492 C-12.51567871 8.19894409 -12.51567871 8.19894409 -11.27734375 7.27734375 C-10.13604004 6.43429688 -10.13604004 6.43429688 -8.97167969 5.57421875 C-7.29356369 4.29565418 -5.68803171 2.92244058 -4.10546875 1.52734375 C-1.94140625 0.02734375 -1.94140625 0.02734375 0 0 Z " fill="#FDFDFD" transform="translate(674.94140625,131.97265625)"/>
<path d="M0 0 C2.94601095 1.4702104 5.44007332 3.41572963 7.99609375 5.46484375 C9.16782686 6.38559727 10.3397057 7.30616535 11.51171875 8.2265625 C12.40213867 8.93111572 12.40213867 8.93111572 13.31054688 9.64990234 C15.93573491 11.71852119 18.59183383 13.74622861 21.24609375 15.77734375 C24.92893901 18.60206126 28.59630558 21.44516415 32.24609375 24.3125 C47.53729292 36.31393233 62.94723962 47.79348421 79.72387695 57.65332031 C81.41838808 58.65057103 83.10618823 59.65925289 84.78979492 60.67480469 C92.20162035 65.09805985 99.78169067 68.92221975 107.62109375 72.52734375 C108.22876587 72.80803711 108.83643799 73.08873047 109.46252441 73.37792969 C119.15289393 77.84446061 128.9053381 81.94656599 139.0234375 85.34375 C140.91665517 85.97966765 142.80058719 86.64304833 144.68359375 87.30859375 C152.9287009 90.08065564 161.33142663 92.16017987 169.80041504 94.13525391 C171.63512807 94.56391764 173.46755083 95.00235009 175.29980469 95.44140625 C202.20968213 101.5363482 228.66662764 102.67210735 256.13482666 102.76556396 C260.76903116 102.78551448 265.40303996 102.82743323 270.03710938 102.8671875 C279.04420884 102.94137729 288.05126237 102.9923302 297.05859375 103.02734375 C297.08151519 140.95619908 297.09911994 178.88505337 297.10965908 216.81391424 C297.11090969 221.2983875 297.11220402 225.78286074 297.11352539 230.26733398 C297.1137877 231.16005914 297.11405001 232.05278429 297.11432027 232.97256172 C297.11866385 247.40083282 297.12654417 261.8290999 297.13574655 276.25736862 C297.14511961 291.07756309 297.15065708 305.89775547 297.15268224 320.71795279 C297.1540499 329.85243883 297.15835929 338.98691353 297.16651022 348.12139607 C297.17182278 354.39718452 297.17338785 360.67296717 297.17209513 366.9487577 C297.17145876 370.56192192 297.17238894 374.17506642 297.17779922 377.78822708 C297.23011603 414.6115592 297.23011603 414.6115592 294.30859375 432.52734375 C294.04743774 434.16920654 294.04743774 434.16920654 293.78100586 435.84423828 C291.86317068 447.63837573 289.58521737 459.34948603 287.05859375 471.02734375 C286.7948999 472.27330322 286.7948999 472.27330322 286.52587891 473.54443359 C280.21910259 502.83322349 269.02412002 532.51585634 255.11523438 559.00390625 C253.98977978 561.1591206 252.89069863 563.32663775 251.79296875 565.49609375 C235.09927481 598.20370977 213.37291151 627.69192829 188.42480469 654.54345703 C187.06147941 656.02420954 185.71787155 657.52064701 184.37890625 659.0234375 C177.68297381 666.51070741 170.5541184 673.34622646 163.05859375 680.02734375 C162.49188965 680.5387793 161.92518555 681.05021484 161.34130859 681.57714844 C139.10002774 701.61490077 114.22809702 718.55580778 88.05859375 733.02734375 C86.9924585 733.62023193 86.9924585 733.62023193 85.90478516 734.22509766 C63.78181362 746.45755841 40.22472842 756.33554295 16.15234375 764.03125 C14.24349246 764.64584227 12.34436806 765.2930271 10.46484375 765.9921875 C0.36386978 769.74546036 -7.57987471 767.60779592 -17.44140625 764.15234375 C-18.62557129 763.7452417 -19.80973633 763.33813965 -21.02978516 762.91870117 C-74.94929859 744.13835168 -124.27187869 716.42258684 -166.23828125 677.51171875 C-168.45984714 675.46993276 -170.70959643 673.48590092 -173.00390625 671.52734375 C-180.2456471 665.23608138 -187.00611661 658.321033 -193.22265625 651.01953125 C-194.42488586 649.62603784 -195.65688066 648.25792485 -196.91015625 646.91015625 C-204.19102081 639.07531287 -210.5415215 630.5806611 -216.94140625 622.02734375 C-217.42931641 621.38071777 -217.91722656 620.7340918 -218.41992188 620.06787109 C-225.74579018 610.35324283 -232.45212663 600.31676571 -238.94140625 590.02734375 C-239.32458008 589.42615723 -239.70775391 588.8249707 -240.10253906 588.20556641 C-244.89272946 580.68756945 -249.05573318 573.04337962 -252.94140625 565.02734375 C-253.54948712 563.82420516 -254.16029436 562.62244166 -254.7734375 561.421875 C-266.93623854 537.57074078 -277.04469557 512.93570989 -283.94140625 487.02734375 C-284.17424316 486.16415527 -284.40708008 485.3009668 -284.64697266 484.41162109 C-294.32782563 448.21064068 -298.46088918 412.26983574 -298.28960311 374.86580396 C-298.27629527 371.1948965 -298.28105592 367.523998 -298.28330994 363.85307312 C-298.28486141 357.53534551 -298.2756796 351.21771288 -298.25859642 344.90000916 C-298.23391539 335.76638007 -298.22637193 326.63279556 -298.22263245 317.49913675 C-298.21611278 302.67013433 -298.19627541 287.84118223 -298.16772461 273.01220703 C-298.1400665 258.63167569 -298.11889095 244.25115814 -298.10620117 229.87060547 C-298.105413 228.97992695 -298.10462483 228.08924843 -298.10381278 227.17157966 C-298.09989685 222.7020346 -298.09610592 218.23248944 -298.09237707 213.76294422 C-298.06142129 176.85104193 -298.00871021 139.9391968 -297.94140625 103.02734375 C-297.09205002 103.02369812 -296.24269379 103.02005249 -295.36759949 103.01629639 C-287.18139691 102.977702 -278.99556438 102.92008984 -270.80962658 102.84344101 C-266.60573936 102.80468646 -262.40203913 102.77216059 -258.19799805 102.75634766 C-240.36234611 102.68433635 -222.7077702 102.23774724 -204.9765625 100.1875 C-204.272983 100.10727852 -203.5694035 100.02705704 -202.8445034 99.9444046 C-176.17091696 96.83214043 -148.42385179 90.16750415 -123.94140625 79.02734375 C-122.68727538 78.49355515 -121.43197213 77.96251623 -120.17578125 77.43359375 C-88.12988094 63.79091861 -59.86792506 45.58642327 -32.88769531 23.75537109 C-26.62169097 18.71131983 -20.18210681 13.90399993 -13.72949219 9.10229492 C-12.51567871 8.19894409 -12.51567871 8.19894409 -11.27734375 7.27734375 C-10.13604004 6.43429688 -10.13604004 6.43429688 -8.97167969 5.57421875 C-7.29356369 4.29565418 -5.68803171 2.92244058 -4.10546875 1.52734375 C-1.94140625 0.02734375 -1.94140625 0.02734375 0 0 Z M-17.75390625 62.46484375 C-32.3596656 74.33007291 -47.60458946 84.6937697 -63.94140625 94.02734375 C-64.80749512 94.52621094 -65.67358398 95.02507812 -66.56591797 95.5390625 C-114.80131913 123.16810141 -169.64593235 139.67071843 -225.1875 142.546875 C-225.97981018 142.58842209 -226.77212036 142.62996918 -227.58843994 142.67277527 C-231.51782421 142.87472985 -235.44669753 143.05601222 -239.37841797 143.20581055 C-240.8225995 143.27113709 -242.26677308 143.33663987 -243.7109375 143.40234375 C-244.98557861 143.45132813 -246.26021973 143.5003125 -247.57348633 143.55078125 C-252.10813337 144.19243627 -254.66277066 145.45413275 -257.55690098 149.01502037 C-259.55097762 153.35361252 -259.35908752 157.27581206 -259.3290863 161.99795532 C-259.33447184 163.01067139 -259.33985738 164.02338746 -259.34540612 165.06679189 C-259.35973111 168.4660377 -259.35256996 171.86489653 -259.34545898 175.26416016 C-259.35116119 177.70069187 -259.35812487 180.13722091 -259.36625671 182.57374573 C-259.38237527 188.51581093 -259.38427766 194.45777851 -259.37904381 200.39985396 C-259.37499395 205.24688997 -259.37645545 210.09389488 -259.38179207 214.94092941 C-259.38254049 215.63231305 -259.38328891 216.3236967 -259.38406001 217.03603136 C-259.3855917 218.4411841 -259.38713005 219.84633684 -259.38867498 221.25148956 C-259.40241574 234.44488354 -259.3969582 247.63821833 -259.38548977 260.83161096 C-259.37562349 272.81928115 -259.38837968 284.80679553 -259.41242396 296.79444166 C-259.43702223 309.15373058 -259.44636849 321.51294762 -259.43977123 333.87226045 C-259.43631569 340.78990304 -259.43837296 347.70742578 -259.45602226 354.62504959 C-259.54771614 393.03215135 -258.51889601 429.63218281 -248.94140625 467.02734375 C-248.6479834 468.1875 -248.35456055 469.34765625 -248.05224609 470.54296875 C-247.15548624 474.06276317 -246.24169494 477.57744687 -245.31640625 481.08984375 C-245.03949951 482.14244385 -244.76259277 483.19504395 -244.47729492 484.27954102 C-242.71870839 490.74503981 -240.51728107 496.8486771 -237.94140625 503.02734375 C-237.18341264 504.95151987 -236.42969709 506.87738532 -235.6796875 508.8046875 C-222.77585585 541.6770925 -206.67779868 572.10020664 -184.94140625 600.02734375 C-183.98008744 601.27835291 -183.01914548 602.52965176 -182.05859375 603.78125 C-177.32445208 609.91428268 -172.46781962 615.85504581 -167.20703125 621.55078125 C-165.33281348 623.59949515 -163.51525376 625.67825068 -161.703125 627.78125 C-157.81579062 632.23520574 -153.69416808 636.4222116 -149.50390625 640.58984375 C-148.4355957 641.66395508 -148.4355957 641.66395508 -147.34570312 642.75976562 C-142.70874901 647.38829658 -137.9219165 651.77227466 -132.94140625 656.02734375 C-132.03777344 656.81238281 -131.13414062 657.59742188 -130.203125 658.40625 C-96.15632045 687.28661987 -57.05735056 708.63754364 -15.37890625 724.33984375 C-14.37480713 724.73139648 -13.37070801 725.12294922 -12.33618164 725.52636719 C-1.93332281 729.30094108 5.84723255 727.58363213 15.87109375 723.52734375 C16.76981201 723.17349609 17.66853027 722.81964844 18.59448242 722.45507812 C21.42387797 721.33129073 24.24254586 720.18414351 27.05859375 719.02734375 C28.42177734 718.46853516 28.42177734 718.46853516 29.8125 717.8984375 C41.47562241 713.0821553 52.89494241 707.90954844 64.05859375 702.02734375 C64.81430664 701.63353516 65.57001953 701.23972656 66.34863281 700.83398438 C84.69378536 691.2256828 101.90098745 679.98069901 118.05859375 667.02734375 C118.92355469 666.35445312 119.78851562 665.6815625 120.6796875 664.98828125 C126.17318967 660.68603774 131.35483612 656.11171794 136.484375 651.3828125 C138.57970541 649.46553748 140.7040525 647.6117049 142.87109375 645.77734375 C151.90244189 637.92156365 160.37242302 629.19560121 168.05859375 620.02734375 C168.83976562 619.1353125 169.6209375 618.24328125 170.42578125 617.32421875 C206.26113244 576.19025532 235.07667689 523.39634039 247.05859375 470.02734375 C247.53734583 468.12163492 248.01943185 466.21676213 248.50390625 464.3125 C258.25933692 425.4026654 258.53917016 386.76339432 258.5274334 346.90191221 C258.52663475 342.82918826 258.53160537 338.75648383 258.53791809 334.68376541 C258.56066396 319.72180119 258.56638112 304.7599314 258.55840379 289.79795332 C258.55279426 278.02194138 258.57382849 266.24614463 258.60676426 254.47018306 C258.64048798 242.31696909 258.65567439 230.16385851 258.65104723 218.01059687 C258.64880725 211.21105906 258.65398222 204.41172207 258.67893982 197.61222458 C258.70113563 191.24405189 258.69938874 184.87633407 258.6790123 178.50815964 C258.67559353 176.17244109 258.68072839 173.83669219 258.69499588 171.50101471 C258.71311225 168.31633393 258.70049647 165.13321065 258.68005371 161.94857788 C258.69257156 161.02292758 258.70508941 160.09727729 258.71798658 159.14357698 C258.65814099 154.80372228 258.43498074 151.93180658 255.64435577 148.492136 C251.72172417 144.75301697 249.33737196 143.78979459 243.95703125 143.75390625 C242.41281494 143.72756104 242.41281494 143.72756104 240.83740234 143.70068359 C239.15251709 143.67675537 239.15251709 143.67675537 237.43359375 143.65234375 C156.251912 141.41414174 80.19720408 111.73636511 16.3125 62.12109375 C15.72057861 61.66234863 15.12865723 61.20360352 14.51879883 60.73095703 C12.91900815 59.48812179 11.32453513 58.23845006 9.73046875 56.98828125 C-0.94088004 49.15638491 -8.91694229 55.11706513 -17.75390625 62.46484375 Z " fill="#183D50" transform="translate(674.94140625,131.97265625)"/>
<path d="M0 0 C1.32 0 2.64 0 4 0 C4.37293562 10.1703708 4.65608775 20.33908308 4.82899475 30.51493168 C4.91204775 35.24200668 5.02437184 39.9643627 5.20703125 44.6887207 C6.45204218 77.74928312 6.45204218 77.74928312 0.6484375 85.65966797 C-2.49836648 88.96455591 -5.91914829 91.42199727 -9.86602783 93.68582153 C-14.62563513 96.61696259 -18.64093201 100.64093201 -22.578125 104.578125 C-25.49099784 107.49099784 -28.59564915 110.10495658 -31.75 112.75 C-36.67231774 116.91474277 -41.29452659 121.22336009 -45.7890625 125.8515625 C-49.11628518 129.08472942 -52.74863189 131.9107254 -56.3671875 134.80859375 C-59.48321629 137.40220228 -62.28974072 140.20174654 -65.11328125 143.10546875 C-67.58742889 145.58986131 -70.21098681 147.86592786 -72.8671875 150.15234375 C-75.27376821 152.2371655 -77.63764945 154.36521533 -80 156.5 C-82.93678465 159.15113994 -85.88602542 161.78290171 -88.875 164.375 C-93.82360215 168.68635761 -98.63475347 173.14801975 -103.46533203 177.59033203 C-108.90962583 182.59118351 -114.35459692 187.5913099 -119.9375 192.4375 C-126.54809312 198.18817857 -132.951871 204.1748003 -139.37890625 210.12890625 C-144.47881244 214.85175079 -149.58463816 219.54773807 -154.84375 224.09375 C-157.77240463 226.68285047 -160.63395168 229.34197787 -163.5 232 C-167.60449083 235.80589758 -171.73816077 239.56111576 -175.97265625 243.22265625 C-178.53432493 245.46843515 -181.04685825 247.7653129 -183.5625 250.0625 C-195.58540076 261 -195.58540076 261 -198 261 C-198.268125 261.804375 -198.53625 262.60875 -198.8125 263.4375 C-199.204375 264.283125 -199.59625 265.12875 -200 266 C-200.99 266.33 -201.98 266.66 -203 267 C-203 267.66 -203 268.32 -203 269 C-204.65 269.33 -206.3 269.66 -208 270 C-208.33 270.99 -208.66 271.98 -209 273 C-210.61457079 274.43581474 -212.29219075 275.80144783 -214 277.125 C-218.64823713 280.82670894 -222.8434388 284.73506461 -226.9921875 288.98046875 C-229.53677758 291.53991052 -232.12105685 293.82323811 -235 296 C-235.66 296 -236.32 296 -237 296 C-237.33 296.99 -237.66 297.98 -238 299 C-239.33333333 300 -240.66666667 301 -242 302 C-242.33 302.99 -242.66 303.98 -243 305 C-242.443125 305.226875 -241.88625 305.45375 -241.3125 305.6875 C-238.31958801 307.38617978 -236.26472763 309.42072687 -234 312 C-234 312.99 -234 313.98 -234 315 C-233.34 315 -232.68 315 -232 315 C-231.67 315.66 -231.34 316.32 -231 317 C-230.2575 317.433125 -229.515 317.86625 -228.75 318.3125 C-225.66493599 320.20560746 -223.41320485 322.31100031 -221 325 C-221 325.66 -221 326.32 -221 327 C-220.34 327 -219.68 327 -219 327 C-218.67 327.66 -218.34 328.32 -218 329 C-217.29875 329.391875 -216.5975 329.78375 -215.875 330.1875 C-212.60677148 332.24790493 -210.27078132 334.66436573 -207.6484375 337.4765625 C-205.96783731 339.23941295 -205.96783731 339.23941295 -203 340 C-203 340.66 -203 341.32 -203 342 C-202.43152344 342.2165625 -201.86304688 342.433125 -201.27734375 342.65625 C-197.33664233 344.98146662 -195.0436758 348.86401111 -192.31640625 352.46875 C-189.88016874 355.13094546 -188.33313146 355.8299152 -185 357 C-183.2265625 358.4453125 -183.2265625 358.4453125 -181.625 360.125 C-181.03203125 360.74246094 -180.4390625 361.35992188 -179.828125 361.99609375 C-177.3753102 364.68475613 -175.01157619 367.44626151 -172.640625 370.20703125 C-170.6239771 372.41093931 -168.36891321 374.18847813 -166 376 C-165.67 376.66 -165.34 377.32 -165 378 C-162.98330173 379.13350534 -162.98330173 379.13350534 -161 380 C-161 380.99 -161 381.98 -161 383 C-160.41750488 383.09732422 -159.83500977 383.19464844 -159.23486328 383.29492188 C-156.53480307 384.14676521 -155.27054432 385.31694655 -153.2421875 387.28125 C-152.53908447 387.95406006 -151.83598145 388.62687012 -151.11157227 389.32006836 C-150.37350342 390.0394458 -149.63543457 390.75882324 -148.875 391.5 C-147.34057827 392.97081875 -145.80542625 394.44087602 -144.26953125 395.91015625 C-143.5317041 396.61930176 -142.79387695 397.32844727 -142.03369141 398.05908203 C-138.10993122 401.80384715 -134.05518079 405.39854573 -130 409 C-102.35355603 433.63730721 -102.35355603 433.63730721 -97 440 C-97 440.66 -97 441.32 -97 442 C-108.05720348 442.20898214 -119.11393354 442.36867197 -130.17271328 442.46630955 C-135.30848116 442.51318364 -140.44289325 442.57670771 -145.57788086 442.67895508 C-150.53820575 442.77710091 -155.49723096 442.83063114 -160.45845222 442.85389519 C-162.34636959 442.87046237 -164.23421966 442.90281675 -166.12158012 442.95157051 C-180.95013448 443.31921143 -180.95013448 443.31921143 -186.04251099 440.04196167 C-188.41821289 437.63256836 -188.41821289 437.63256836 -190.23524475 435.2308197 C-192.22985918 432.70943597 -194.19757218 431.52820388 -197 430 C-198.71337891 428.57373047 -198.71337891 428.57373047 -200.2265625 427.1171875 C-200.7834375 426.58996094 -201.3403125 426.06273437 -201.9140625 425.51953125 C-203.0626515 424.41552218 -204.21108694 423.31135333 -205.359375 422.20703125 C-208.77186305 418.96546636 -208.77186305 418.96546636 -213 417 C-213 416.34 -213 415.68 -213 415 C-213.99 414.67 -214.98 414.34 -216 414 C-216 413.34 -216 412.68 -216 412 C-216.66 412 -217.32 412 -218 412 C-219.33984375 410.6015625 -219.33984375 410.6015625 -220.9375 408.625 C-223.99590457 405.02574073 -227.26610312 401.74583217 -230.75 398.5625 C-231.67296875 397.71816406 -232.5959375 396.87382813 -233.546875 396.00390625 C-235.90733595 393.83351831 -235.90733595 393.83351831 -239 393 C-239 392.34 -239 391.68 -239 391 C-239.66 391 -240.32 391 -241 391 C-242.4453125 389.53125 -242.4453125 389.53125 -244.125 387.5 C-246.72701346 384.44711573 -249.37960848 381.49062387 -252.1875 378.625 C-252.82042969 377.97789062 -253.45335937 377.33078125 -254.10546875 376.6640625 C-255.98490545 375.01325831 -257.71902746 374.00140258 -260 373 C-260 372.34 -260 371.68 -260 371 C-260.66 371 -261.32 371 -262 371 C-262 370.34 -262 369.68 -262 369 C-262.56074219 368.76796875 -263.12148438 368.5359375 -263.69921875 368.296875 C-266.58681955 366.66922905 -268.5155302 364.63740168 -270.8125 362.25 C-273.80057254 359.19120385 -276.77935628 356.24047534 -280.0625 353.5 C-283 351 -283 351 -284 349 C-284.12989891 346.13896705 -284.19944772 343.3011931 -284.22460938 340.4387207 C-284.23599945 339.55234421 -284.24738953 338.66596771 -284.25912476 337.75273132 C-284.36977393 328.47792761 -284.41720665 319.20232668 -284.45996094 309.92700195 C-284.48223764 305.52588928 -284.52400726 301.12562435 -284.58300781 296.72485352 C-284.65409737 291.41212284 -284.69079339 286.10019017 -284.70307922 280.78700829 C-284.71347988 278.76357506 -284.73590427 276.74016596 -284.77067566 274.71700478 C-284.81691369 271.87981005 -284.81887886 269.04574033 -284.81054688 266.20825195 C-284.83414276 265.37629303 -284.85773865 264.54433411 -284.88204956 263.68716431 C-284.81382475 258.87390084 -284.00951959 256.50531365 -280.57727051 253.04093933 C-279.40292786 252.00639969 -278.21252654 250.98951115 -277 250 C-276.32453125 249.38511719 -275.6490625 248.77023437 -274.953125 248.13671875 C-274.39109375 247.65847656 -273.8290625 247.18023438 -273.25 246.6875 C-268.9493512 242.99764373 -264.83059028 239.12448701 -260.7109375 235.234375 C-258 233 -258 233 -255.046875 231.546875 C-251.4337311 229.71250964 -248.76184247 227.28366154 -245.875 224.5 C-244.73333226 223.42290213 -243.59139902 222.34608561 -242.44921875 221.26953125 C-241.87606934 220.72506348 -241.30291992 220.1805957 -240.71240234 219.61962891 C-238.0632632 217.11401313 -235.3773327 214.64927138 -232.6875 212.1875 C-232.18581299 211.72722412 -231.68412598 211.26694824 -231.16723633 210.79272461 C-228.49544825 208.34694614 -225.80044945 205.93386208 -223.0625 203.5625 C-219.58489411 200.54474282 -216.19296308 197.43812435 -212.8125 194.3125 C-212.25844482 193.80041992 -211.70438965 193.28833984 -211.13354492 192.76074219 C-208.30170248 190.13997632 -205.47688197 187.5120052 -202.66015625 184.875 C-197.64019634 180.18881204 -192.61059543 175.61292196 -187.25 171.3125 C-182.90752587 167.82717606 -178.99530315 164.09957486 -175.109375 160.1171875 C-172.54425815 157.54257021 -169.84486628 155.17237023 -167.08984375 152.8046875 C-162.99901633 149.27204774 -159.01189772 145.62168275 -155 142 C-152.5072193 139.7557208 -150.0136744 137.51229619 -147.51953125 135.26953125 C-145.78518814 133.70727799 -144.05357021 132.14199577 -142.32421875 130.57421875 C-141.45410156 129.78660156 -140.58398438 128.99898437 -139.6875 128.1875 C-138.90761719 127.47980469 -138.12773438 126.77210938 -137.32421875 126.04296875 C-135.76024966 124.66825306 -134.15676777 123.33736554 -132.51953125 122.05078125 C-129.81939821 119.85299855 -127.44312483 117.47975339 -125 115 C-122.79217456 112.87270729 -120.55525627 110.7778606 -118.3125 108.6875 C-117.73177734 108.13771484 -117.15105469 107.58792969 -116.55273438 107.02148438 C-112.23151203 103 -112.23151203 103 -110 103 C-110 102.34 -110 101.68 -110 101 C-108.6015625 99.58984375 -108.6015625 99.58984375 -106.625 97.9375 C-102.50124814 94.4330395 -98.47523131 90.8365732 -94.46484375 87.203125 C-92.19690054 85.17599351 -89.88680297 83.211797 -87.5625 81.25 C-85.36790244 79.34772458 -84.00613428 78.0102238 -82.5 75.5 C-80.58212148 72.3035358 -78.14597121 70.34777258 -75.3125 67.95703125 C-72.80494775 65.83493045 -70.37065454 63.64440084 -67.9375 61.4375 C-61.87885463 55.98286068 -61.87885463 55.98286068 -59.1875 53.625 C-58.68605469 53.18414062 -58.18460938 52.74328125 -57.66796875 52.2890625 C-56 51 -56 51 -53.59375 49.59375 C-50.85759252 47.91249661 -48.67145309 46.05069558 -46.3125 43.875 C-45.44238281 43.07835937 -44.57226562 42.28171875 -43.67578125 41.4609375 C-42.79277344 40.64882813 -41.90976562 39.83671875 -41 39 C-39.33525976 37.49786229 -37.66862517 35.99782102 -36 34.5 C-35.1853125 33.76394531 -34.370625 33.02789062 -33.53125 32.26953125 C-31.77162174 30.69183986 -29.99982583 29.12765708 -28.21875 27.57421875 C-27.3215625 26.78660156 -26.424375 25.99898438 -25.5 25.1875 C-24.6853125 24.47980469 -23.870625 23.77210938 -23.03125 23.04296875 C-21.0562777 21.05660238 -20.20306135 19.48100205 -19 17 C-17.37109375 15.359375 -17.37109375 15.359375 -15.4375 13.75 C-11.49551416 10.42777793 -7.68015938 6.99032055 -3.8828125 3.50390625 C-2 2 -2 2 0 2 C0 1.34 0 0.68 0 0 Z " fill="#1A3E51" transform="translate(843,280)"/>
<path d="M0 0 C0 110.55 0 221.1 0 335 C-19.14 335 -38.28 335 -58 335 C-59.75336305 333.24663695 -59.12245719 330.94615396 -59.12908131 328.61012262 C-59.12616847 327.83095486 -59.12325563 327.05178709 -59.12025452 326.24900818 C-59.12153615 325.0165355 -59.12153615 325.0165355 -59.12284368 323.75916439 C-59.124501 320.9845222 -59.11897302 318.20993943 -59.11352539 315.43530273 C-59.11324355 313.45488486 -59.1134012 311.47446688 -59.1139679 309.49404907 C-59.11425598 304.09964316 -59.10835748 298.70525926 -59.10139394 293.31085849 C-59.09516222 287.68006421 -59.09455675 282.04926948 -59.09336853 276.41847229 C-59.09025467 265.74766975 -59.08204056 255.0768774 -59.07201904 244.40607935 C-59.06085958 232.26118582 -59.05534788 220.1162918 -59.05032361 207.97139442 C-59.03985799 182.98092395 -59.0222575 157.99046255 -59 133 C-59.99 133 -60.98 133 -62 133 C-62.33 133.99 -62.66 134.98 -63 136 C-64.57361448 137.39360692 -66.20995725 138.71702088 -67.875 140 C-73.12442265 144.18047407 -77.7506017 148.64980145 -82.453125 153.4453125 C-85.14639461 156.14684368 -87.94136596 158.6490929 -90.83984375 161.125 C-93.60985094 163.5293462 -96.30372496 166.01382974 -99 168.5 C-102.9183853 172.10857641 -106.87665237 175.66005606 -110.90234375 179.1484375 C-113.49266799 181.43486895 -116.02499866 183.78009197 -118.5625 186.125 C-123.08791315 190.30330572 -127.70271341 194.36191918 -132.375 198.375 C-138.10997692 203.30416331 -143.69324376 208.36958551 -149.21337891 213.53759766 C-152.76805397 216.86418701 -156.36167283 220.12734657 -160.0546875 223.30078125 C-163.39930855 226.22228759 -166.64215556 229.25797396 -169.8984375 232.27734375 C-172 234 -172 234 -174 234 C-174 235.32 -174 236.64 -174 238 C-176.75 238.375 -176.75 238.375 -180 238 C-180.94906438 236.61241704 -181.88862162 235.21712257 -182.77246094 233.78710938 C-185.15248723 230.32215463 -188.25769883 227.4951552 -191.25 224.5625 C-191.92458252 223.89508789 -192.59916504 223.22767578 -193.29418945 222.54003906 C-197.07750242 218.8183882 -200.89850375 215.18023525 -204.95703125 211.7578125 C-208.37849918 208.81391084 -211.664955 205.7198171 -214.96557617 202.64160156 C-217.76340344 200.01749218 -217.76340344 200.01749218 -221 198 C-220.63266265 195.51063347 -220.41485041 194.32644174 -218.3984375 192.73974609 C-217.73070312 192.37961426 -217.06296875 192.01948242 -216.375 191.6484375 C-212.03145638 189.11470372 -208.60194246 186.10874576 -205 182.625 C-203.77421366 181.46272255 -202.5476578 180.30125609 -201.3203125 179.140625 C-200.74313477 178.59212891 -200.16595703 178.04363281 -199.57128906 177.47851562 C-197.71240317 175.72938371 -195.80829438 174.04135415 -193.875 172.375 C-190.46797553 169.43156633 -187.13403213 166.41410608 -183.8125 163.375 C-183.31282715 162.91915527 -182.8131543 162.46331055 -182.29833984 161.99365234 C-179.98969503 159.87566484 -177.73287148 157.72949011 -175.53125 155.5 C-172.70996674 152.71354739 -169.72420725 150.16904534 -166.6875 147.625 C-159.80779638 141.79938502 -153.24530225 135.6715002 -146.6953125 129.48046875 C-142.20399242 125.23689052 -137.61278038 121.11070905 -133 117 C-131.29115804 115.45889713 -129.58283099 113.91722314 -127.875 112.375 C-125.04472278 109.82468838 -122.19842149 107.29950362 -119.3125 104.8125 C-115.2819831 101.30734579 -111.3962454 97.6526111 -107.5 94 C-101.70833284 88.57119794 -95.86134589 83.24271477 -89.78125 78.13671875 C-89.0490625 77.51410156 -88.316875 76.89148438 -87.5625 76.25 C-86.90378906 75.69828125 -86.24507812 75.1465625 -85.56640625 74.578125 C-83.74590402 72.97750746 -83.74590402 72.97750746 -83 70 C-79.71959057 66.62564089 -76.06219628 63.6927367 -72.125 61.125 C-68.39539229 58.58886676 -65.22063821 55.660044 -61.8984375 52.6171875 C-58.69238699 49.72223623 -55.41727313 46.9208014 -52.125 44.125 C-47.18616627 39.920506 -42.36347087 35.62416571 -37.60766602 31.21313477 C-33.05426703 27.00763256 -28.36416706 22.96979434 -23.66333008 18.93066406 C-18.7111131 14.65836343 -13.8859039 10.26391128 -9.12329102 5.78149414 C-2.95165301 0 -2.95165301 0 0 0 Z " fill="#183C50" transform="translate(846,387)"/>
<path d="M0 0 C5.15093893 0.74371268 7.26069011 3.00053131 10.5 6.875 C13.68494947 10.6309208 16.60365545 13.65427399 21 16 C22.8125 17.5 22.8125 17.5 24 19 C24 19.99 24 20.98 24 22 C24.66 22 25.32 22 26 22 C26 22.66 26 23.32 26 24 C26.66 24 27.32 24 28 24 C28 24.66 28 25.32 28 26 C28.5990918 26.10940918 29.19818359 26.21881836 29.81542969 26.33154297 C33.45858586 27.44631293 35.68809838 30.42920108 38.25 33.125 C39.4095257 34.31698722 40.57097631 35.50710508 41.734375 36.6953125 C42.29447266 37.26797852 42.85457031 37.84064453 43.43164062 38.43066406 C45.90849688 40.90906257 48.53258561 43.19088978 51.21875 45.4375 C52.10046875 46.2109375 52.10046875 46.2109375 53 47 C53.84933703 47.69996943 54.69867407 48.39993887 55.57374859 49.1211195 C58.56024604 52.66476269 58.69273269 55.19569838 58.60127258 59.62458801 C58.60554471 60.38431732 58.60981683 61.14404663 58.61421841 61.92679805 C58.62244401 64.4684845 58.59497255 67.00851486 58.56762695 69.55004883 C58.56621638 71.37342286 58.56700864 73.19679974 58.56983948 75.02017212 C58.57127468 79.96831407 58.54186792 84.9158506 58.50696969 89.86385179 C58.47572363 95.03547999 58.47277683 100.20712192 58.46684265 105.37882996 C58.45129909 115.17131233 58.41026356 124.96351577 58.3600952 134.75587529 C58.3042178 145.90447006 58.27671925 157.05307812 58.25161803 168.20177805 C58.19934826 191.13467338 58.11139587 214.06732106 58 237 C50.58540058 237.02312883 43.17080889 237.04091785 35.75618076 237.05181217 C32.31359652 237.05703982 28.87103688 237.06413531 25.4284668 237.07543945 C21.47444957 237.08834235 17.52044244 237.09322918 13.56640625 237.09765625 C11.70394005 237.10539818 11.70394005 237.10539818 9.80384827 237.11329651 C8.09218727 237.11340981 8.09218727 237.11340981 6.34594727 237.11352539 C5.335569 237.115746 4.32519073 237.11796661 3.28419495 237.12025452 C1 237 1 237 0 236 C-0.09801911 232.96597636 -0.12991072 229.95470393 -0.12025452 226.92027283 C-0.12110894 225.95570005 -0.12196337 224.99112726 -0.12284368 223.997325 C-0.12450142 220.73900229 -0.11897233 217.48073014 -0.11352539 214.22241211 C-0.11324356 211.89717103 -0.11340118 209.57192987 -0.1139679 207.24668884 C-0.11425602 200.9122316 -0.10835695 194.57779312 -0.10139394 188.24334025 C-0.09579342 182.30072885 -0.09477212 176.35811821 -0.09374207 170.41550452 C-0.09155124 158.64182693 -0.08489033 146.86815626 -0.07543945 135.09448242 C-0.06626612 123.65470413 -0.0591849 112.21492771 -0.05493164 100.77514648 C-0.05466892 100.07047825 -0.05440619 99.36581002 -0.05413551 98.6397882 C-0.05283051 95.10481803 -0.05156679 91.56984785 -0.05032361 88.03487766 C-0.03995004 58.68991398 -0.02225678 29.34495706 0 0 Z " fill="#183C50" transform="translate(492,485)"/>
<path d="M0 0 C7.02386883 4.27373192 15.15826675 9.62714399 17.86328125 17.7421875 C18.31703125 18.1959375 18.77078125 18.6496875 19.23828125 19.1171875 C23.13249527 23.01140152 24.34669691 27.09675279 25.3359375 32.36328125 C25.8349158 34.85660743 25.8349158 34.85660743 26.90234375 37.609375 C29.74750333 46.88505785 27.99171321 56.77854985 24.86328125 65.7421875 C24.48042969 66.97001953 24.48042969 66.97001953 24.08984375 68.22265625 C18.960938 83.02119624 7.26542309 93.54597493 -6.37109375 100.5546875 C-19.04886236 105.99824916 -37.33369903 105.5674399 -50.08984375 100.58984375 C-59.37410635 96.29289657 -69.34153594 90.10421109 -74.13671875 80.7421875 C-74.13671875 80.0821875 -74.13671875 79.4221875 -74.13671875 78.7421875 C-74.79671875 78.7421875 -75.45671875 78.7421875 -76.13671875 78.7421875 C-77.86520912 74.76597646 -79.52318323 70.76642192 -81.13671875 66.7421875 C-81.46671875 65.93007813 -81.79671875 65.11796875 -82.13671875 64.28125 C-87.18501253 50.05865311 -84.02897758 35.18067256 -78.13671875 21.7421875 C-71.54081667 10.74461128 -61.45092434 -0.30063447 -48.88671875 -4.1328125 C-47.30626087 -4.51975219 -45.72260432 -4.89375701 -44.13671875 -5.2578125 C-43.03070313 -5.60457031 -41.9246875 -5.95132813 -40.78515625 -6.30859375 C-27.00911335 -9.89272483 -12.31997517 -6.55977486 0 0 Z " fill="#214358" transform="translate(535.13671875,954.2578125)"/>
<path d="M0 0 C8.58 0 17.16 0 26 0 C29.89182216 7.63102385 33.59208654 15.18186719 36.81640625 23.12109375 C39.54693057 29.7626661 42.59258222 36.24984835 45.83984375 42.65234375 C57.24137931 65.72413793 57.24137931 65.72413793 60 74 C60.45375 72.865625 60.9075 71.73125 61.375 70.5625 C63 67 63 67 65 66 C66.33247398 62.57817056 67.44365026 59.10278453 68.5859375 55.61328125 C70.00692302 51.98230997 71.81885156 49.2131829 74 46 C75.18459664 43.18610078 75.18459664 43.18610078 76.0625 40.375 C77.27570511 36.65728134 78.63356626 34.08968695 81 31 C81.73876929 29.16353029 81.73876929 29.16353029 82.25 27.1875 C85.09405581 18.08047023 89.74780976 9.50438048 94 1 C102.58 1 111.16 1 120 1 C120 36.64 120 72.28 120 109 C112.41 109 104.82 109 97 109 C96.67 88.21 96.34 67.42 96 46 C94.02 50.62 92.04 55.24 90 60 C88.78744757 62.65348852 87.5621549 65.30128162 86.3125 67.9375 C84.62565787 71.50119637 82.95794279 75.06208811 81.41796875 78.69140625 C80.34914029 81.18533932 79.24483218 83.59332444 78 86 C76.51240399 88.93045229 75.19175639 91.89168442 73.92578125 94.92578125 C71.79497295 99.69987074 69.35821408 104.33597659 67 109 C62.38 109 57.76 109 53 109 C50.83676669 104.82805005 48.83099012 100.69216371 47.125 96.3125 C43.87679351 88.01294878 40.03113212 79.97203331 36 72.02734375 C31.96893746 63.85499431 28.38310892 55.45777231 25 47 C24.67 67.46 24.34 87.92 24 109 C16.08 109 8.16 109 0 109 C0 73.03 0 37.06 0 0 Z " fill="#204257" transform="translate(651,948)"/>
<path d="M0 0 C3.3420354 0.73803192 4.98945152 1.59864653 7.46875 3.9921875 C8.11674561 4.60980957 8.76474121 5.22743164 9.43237305 5.86376953 C10.11468994 6.52747559 10.79700684 7.19118164 11.5 7.875 C12.93301494 9.24539718 14.36661411 10.61518368 15.80078125 11.984375 C16.50928223 12.66435547 17.2177832 13.34433594 17.94775391 14.04492188 C20.82128788 16.78240225 23.74847738 19.45821377 26.6875 22.125 C29.39668222 24.58510607 32.04849142 27.04921517 34.6171875 29.65625 C36.52288675 31.53070828 38.20699096 32.95218128 40.4375 34.375 C43.11147879 36.20395519 45.03582963 38.09962016 47.0625 40.625 C49.67129064 43.86157448 52.25891033 45.17102283 56 47 C56.4228125 47.72832031 56.845625 48.45664062 57.28125 49.20703125 C59.48116263 52.78188928 62.21410699 55.2665608 65.3125 58.0625 C65.86873047 58.57876953 66.42496094 59.09503906 66.99804688 59.62695312 C70.46962135 62.79946298 74.05879936 65.41650725 78 68 C79.90625 69.67578125 79.90625 69.67578125 81.5 71.3125 C82.08523438 71.910625 82.67046875 72.50875 83.2734375 73.125 C85.45473687 75.49383189 87.47551182 77.97277712 89.4453125 80.51953125 C90.96856468 82.16354316 90.96856468 82.16354316 93.35546875 82.8828125 C96.76957849 84.32510997 98.6425805 86.38667693 101.1875 89.0625 C104.26744837 92.46904813 104.26744837 92.46904813 108 95 C107.75 97.375 107.75 97.375 107 100 C105 101.125 105 101.125 103 102 C102.505 103.485 102.505 103.485 102 105 C99.8203125 107.0078125 99.8203125 107.0078125 97.125 109.125 C96.24070312 109.82882812 95.35640625 110.53265625 94.4453125 111.2578125 C92 113 92 113 89 114 C88.731875 114.5775 88.46375 115.155 88.1875 115.75 C86.4236086 119.09211003 84.01958493 120.7353113 81 123 C80.34 123 79.68 123 79 123 C78.66162109 123.84498047 78.66162109 123.84498047 78.31640625 124.70703125 C76.62453462 127.65400053 74.49601428 129.46030412 71.9375 131.6875 C71.03902344 132.47511719 70.14054688 133.26273438 69.21484375 134.07421875 C68.48394531 134.70972656 67.75304687 135.34523438 67 136 C66.67 136.33 66.34 136.66 66 137 C63.6953125 137.30859375 63.6953125 137.30859375 61 137 C58.8671875 135.28515625 58.8671875 135.28515625 56.875 133.0625 C53.95683997 129.77768067 53.95683997 129.77768067 50 128 C48.3515625 126.328125 48.3515625 126.328125 46.625 124.25 C41.18302448 117.54192774 41.18302448 117.54192774 34 113 C34 112.34 34 111.68 34 111 C33.34 111 32.68 111 32 111 C32 110.34 32 109.68 32 109 C31.34 109 30.68 109 30 109 C28.17270951 107.06469234 26.53104622 105.00952377 24.8515625 102.9453125 C22.99402052 100.99371776 21.46528691 100.031728 19 99 C19 98.34 19 97.68 19 97 C17.515 96.505 17.515 96.505 16 96 C14.41250218 94.31090232 13.02608082 92.51598057 11.59765625 90.69140625 C9.83940844 88.82998497 8.27640703 88.13747607 6 87 C3.07776821 85.11157137 1.49278639 83.15329454 0 80 C-0.84802995 73.93590496 -0.69858146 67.92684233 -0.5859375 61.81640625 C-0.57473651 60.03280569 -0.56620059 58.24918658 -0.56021118 56.46556091 C-0.53738363 51.78797776 -0.47851389 47.11152573 -0.4119873 42.43438721 C-0.35043289 37.65498147 -0.32316817 32.87539163 -0.29296875 28.09570312 C-0.22876384 18.7299738 -0.12645892 9.36508123 0 0 Z " fill="#193C50" transform="translate(493,380)"/>
<path d="M0 0 C0.72993164 0.00016113 1.45986328 0.00032227 2.21191406 0.00048828 C11.31139644 0.18816757 19.49694111 2.9306869 27.875 6.375 C27.875 7.035 27.875 7.695 27.875 8.375 C28.9578125 8.7771875 28.9578125 8.7771875 30.0625 9.1875 C37.29792385 12.24245674 41.80205454 16.95873257 46.75 22.9375 C47.36617187 23.68128906 47.98234375 24.42507813 48.6171875 25.19140625 C49.875 27.375 49.875 27.375 49.75 29.54296875 C48.31480262 32.54791327 45.85887156 33.18145138 42.875 34.375 C41.885 34.375 40.895 34.375 39.875 34.375 C39.875 35.035 39.875 35.695 39.875 36.375 C36.905 37.695 33.935 39.015 30.875 40.375 C30.17375 39.653125 29.4725 38.93125 28.75 38.1875 C23.75576403 33.18538245 23.75576403 33.18538245 17.875 29.375 C17.875 28.715 17.875 28.055 17.875 27.375 C12.1523665 25.42868427 7.02313794 25.03978832 1 25.0625 C0.15308594 25.04638672 -0.69382812 25.03027344 -1.56640625 25.01367188 C-7.31746297 25.00926831 -12.99492811 25.56100253 -18.125 28.375 C-18.62 29.86 -18.62 29.86 -19.125 31.375 C-20.74949243 33.08279973 -22.41720027 34.75050757 -24.125 36.375 C-26.34689824 38.59689824 -27.05098892 40.45982708 -28.125 43.375 C-28.785 43.375 -29.445 43.375 -30.125 43.375 C-31.46642562 61.67984925 -31.46642562 61.67984925 -23.125 77.375 C-20.21646935 80.44777709 -17.04191556 82.71784342 -13.125 84.375 C-13.125 85.035 -13.125 85.695 -13.125 86.375 C-3.74040433 88.17972994 6.79470089 88.6928016 15.875 85.375 C17.56298827 83.93749809 17.56298827 83.93749809 18.875 82.375 C19.720625 82.065625 20.56625 81.75625 21.4375 81.4375 C24.45887084 80.1204922 24.65946385 79.37332252 25.875 76.375 C27.195 74.065 28.515 71.755 29.875 69.375 C20.305 69.375 10.735 69.375 0.875 69.375 C0.875 63.435 0.875 57.495 0.875 51.375 C19.025 51.375 37.175 51.375 55.875 51.375 C55.875 69.41034467 52.95081932 83.07051505 40.19140625 96.26171875 C29.34432369 106.15762375 16.33875584 111.77583206 1.6875 111.6875 C0.75929443 111.68403564 -0.16891113 111.68057129 -1.12524414 111.67700195 C-10.42957949 111.52998452 -19.00419189 110.11213806 -27.125 105.375 C-27.125 104.715 -27.125 104.055 -27.125 103.375 C-27.95 103.21 -28.775 103.045 -29.625 102.875 C-39.93769045 98.45527552 -46.65881582 87.02747319 -51.046875 77.18359375 C-55.93671523 64.44520562 -56.77492156 46.61574474 -51.453125 33.8359375 C-49.04144152 29.36722988 -46.29176951 25.34017114 -43.125 21.375 C-42.30515625 20.30958984 -42.30515625 20.30958984 -41.46875 19.22265625 C-31.31735352 6.74888841 -15.99238439 -0.03367606 0 0 Z " fill="#204257" transform="translate(944.125,946.625)"/>
<path d="M0 0 C8.91 0 17.82 0 27 0 C29.1346875 5.5996875 29.1346875 5.5996875 31.3125 11.3125 C31.75505127 12.46532471 32.19760254 13.61814941 32.65356445 14.8059082 C34.90307412 20.75751436 36.82147028 26.6567456 38.31323242 32.84448242 C38.87649373 35.18254591 38.87649373 35.18254591 41 37 C41.68603516 38.73999023 41.68603516 38.73999023 42.2890625 40.80859375 C42.50820313 41.55560547 42.72734375 42.30261719 42.953125 43.07226562 C43.17484375 43.85279297 43.3965625 44.63332031 43.625 45.4375 C43.85445312 46.21416016 44.08390625 46.99082031 44.3203125 47.79101562 C45.25158313 51.00888823 46 53.62639027 46 57 C46.66 57 47.32 57 48 57 C48.17128418 57.59538574 48.34256836 58.19077148 48.51904297 58.80419922 C49.29764861 61.49646085 50.08619084 64.18571111 50.875 66.875 C51.14441406 67.81214844 51.41382813 68.74929688 51.69140625 69.71484375 C51.95566406 70.61074219 52.21992187 71.50664063 52.4921875 72.4296875 C52.73308105 73.25710449 52.97397461 74.08452148 53.22216797 74.93701172 C53.90647752 77.18126023 53.90647752 77.18126023 56 79 C56.87741724 81.74518662 57.68327424 84.47127352 58.4375 87.25 C59.56634006 91.40213727 60.62420514 95.26862418 62.59765625 99.109375 C64 102 64 102 65 109 C56.42 109 47.84 109 39 109 C38.175 105.90625 37.35 102.8125 36.5 99.625 C36.23896484 98.65127441 35.97792969 97.67754883 35.70898438 96.67431641 C35.50595703 95.90780762 35.30292969 95.14129883 35.09375 94.3515625 C34.88427734 93.56604004 34.67480469 92.78051758 34.45898438 91.97119141 C34 90 34 90 34 88 C20.47 88 6.94 88 -7 88 C-7.99 92.95 -7.99 92.95 -9 98 C-9.66 98 -10.32 98 -11 98 C-11.99 101.63 -12.98 105.26 -14 109 C-21.92 109 -29.84 109 -38 109 C-36.89002695 100.12021563 -36.89002695 100.12021563 -34.75 95.5625 C-32.2012121 89.78721181 -30.42047389 83.95867329 -28.78808594 77.87524414 C-27.65956686 73.78842019 -26.18441241 70.60055379 -24 67 C-23.20502278 64.58316291 -22.47804571 62.14313417 -21.8125 59.6875 C-21.46832031 58.43324219 -21.12414062 57.17898438 -20.76953125 55.88671875 C-20.51558594 54.93410156 -20.26164063 53.98148438 -20 53 C-19.34 53 -18.68 53 -18 53 C-17.92523437 52.45214844 -17.85046875 51.90429688 -17.7734375 51.33984375 C-16.75266175 45.18516642 -14.80064056 39.77491605 -12.38647461 34.03198242 C-10.12214459 28.54794061 -8.41757571 22.98651015 -6.9128418 17.24975586 C-5.20390123 10.99082841 -2.80309035 6.16679877 0 0 Z " fill="#204257" transform="translate(819,948)"/>
<path d="M0 0 C7.92 0 15.84 0 24 0 C24 12.87 24 25.74 24 39 C28.58336517 37.16665393 30.12516673 36.24215577 33.375 32.875 C34.08398438 32.15054688 34.79296875 31.42609375 35.5234375 30.6796875 C37.48936929 28.5525121 39.40219892 26.40117955 41.30078125 24.21484375 C45.66924037 19.19441093 50.25014158 14.38354668 54.83398438 9.56054688 C55.47271484 8.88443359 56.11144531 8.20832031 56.76953125 7.51171875 C57.34292236 6.90803467 57.91631348 6.30435059 58.50708008 5.68237305 C60.19091179 3.86244519 60.19091179 3.86244519 62 1 C65.07275391 0.65942383 65.07275391 0.65942383 68.9765625 0.70703125 C69.66181 0.71127609 70.3470575 0.71552094 71.05307007 0.71989441 C73.24411129 0.73670247 75.43423632 0.77435595 77.625 0.8125 C79.10936173 0.82754421 80.59373785 0.84123307 82.078125 0.85351562 C85.71904833 0.8866121 89.35943478 0.93840793 93 1 C92.10959463 2.23310435 91.21234296 3.46126564 90.3125 4.6875 C89.81363281 5.37199219 89.31476563 6.05648437 88.80078125 6.76171875 C86.69777527 9.37565026 84.40123684 11.65635459 82 14 C80.97412718 15.01847284 79.94936546 16.03806571 78.92553711 17.05859375 C78.10459816 17.87469116 78.10459816 17.87469116 77.26707458 18.70727539 C74.80274619 21.15813822 72.34114637 23.61173431 69.87963867 26.06542969 C68.58398057 27.35603871 67.28742924 28.64575163 65.98999023 29.93457031 C64.10422272 31.80816851 62.22173907 33.68501347 60.33984375 35.5625 C59.76370834 36.13347412 59.18757294 36.70444824 58.59397888 37.29272461 C56.13372329 39.75263869 53.8783559 42.15544503 51.72875977 44.90234375 C51.15826904 45.59457031 50.58777832 46.28679688 50 47 C49.34 47 48.68 47 48 47 C50.49834576 51.58612422 53.69097416 55.29481325 57.125 59.1875 C57.70540039 59.85168945 58.28580078 60.51587891 58.88378906 61.20019531 C62.13791957 64.91534265 65.42893381 68.59448015 68.75 72.25 C71.71967972 75.52149835 74.54339555 78.86969572 77.3125 82.3125 C81.26608482 87.20410582 85.44570349 91.82942901 89.7512207 96.40942383 C99 106.26784185 99 106.26784185 99 109 C94.5528174 109.19863726 90.10801816 109.3433135 85.65771484 109.43945312 C84.14618946 109.47954492 82.6349717 109.53403905 81.12451172 109.60351562 C68.57270506 110.16615429 68.57270506 110.16615429 64.76074219 107.33959961 C63.23092525 105.29371997 62.1011392 103.29987561 61 101 C53.39948916 91.22561424 45.40043534 81.75701491 37.52099609 72.20751953 C36.26258905 70.68117305 35.00621153 69.15315393 33.75 67.625 C33.06421875 66.79226563 32.3784375 65.95953125 31.671875 65.1015625 C30 63 30 63 28 60 C26.68 59.67 25.36 59.34 24 59 C24 75.5 24 92 24 109 C16.08 109 8.16 109 0 109 C0 73.03 0 37.06 0 0 Z " fill="#204257" transform="translate(348,948)"/>
<path d="M0 0 C7.92 0 15.84 0 24 0 C24 29.04 24 58.08 24 88 C35.88 88 47.76 88 60 88 C60 94.93 60 101.86 60 109 C40.2 109 20.4 109 0 109 C0 73.03 0 37.06 0 0 Z " fill="#214357" transform="translate(580,948)"/>
<path d="M0 0 C0.8863916 0.00169189 1.7727832 0.00338379 2.68603516 0.00512695 C9.90520103 0.20370382 14.63649834 1.83218031 20.1875 6.5625 C21.280625 7.26375 22.37375 7.965 23.5 8.6875 C30.35338236 16.01902531 31.88944535 24.69953244 31.70874023 34.40307617 C31.26232364 43.41377649 28.39122308 50.19986163 22.1875 56.8046875 C14.2324003 63.79647435 6.33827598 65.03220015 -3.96875 64.84765625 C-13.00275972 64.17745024 -19.02675368 60.25591104 -25.375 54.0625 C-31.49629862 46.35276314 -32.8798434 36.07857371 -31.8125 26.5625 C-29.85678751 16.6010292 -25.13367406 9.41709095 -16.8125 3.5625 C-11.1607188 0.56130601 -6.35717735 -0.01736279 0 0 Z " fill="#FCFCFC" transform="translate(506.8125,970.4375)"/>
<path d="M0 0 C1.12148438 -0.01417969 2.24296875 -0.02835938 3.3984375 -0.04296875 C6.57384842 0.18384632 8.76734718 0.83359332 11.625 2.1875 C11.625 2.8475 11.625 3.5075 11.625 4.1875 C12.3675 4.373125 13.11 4.55875 13.875 4.75 C17.71521767 6.75738651 19.34920287 9.15652395 20.625 13.1875 C21.61938567 20.4244179 21.51865565 26.66344382 17.0625 32.6640625 C15.12127845 34.72133534 13.21907037 36.06573984 10.625 37.1875 C9.965 37.1875 9.305 37.1875 8.625 37.1875 C8.625 37.8475 8.625 38.5075 8.625 39.1875 C6.08216766 39.29621967 3.54404912 39.37512401 1 39.4375 C0.28714844 39.47101563 -0.42570313 39.50453125 -1.16015625 39.5390625 C-6.386724 39.63496283 -9.20756467 38.59834737 -13.375 35.1875 C-17.375 30.76644737 -17.375 30.76644737 -17.375 28.1875 C-18.035 28.1875 -18.695 28.1875 -19.375 28.1875 C-21.61491118 23.70767764 -20.97459602 18.03517723 -20.375 13.1875 C-18.35365116 8.73103628 -15.8271673 5.94515251 -11.5 3.6875 C-10.79875 3.5225 -10.0975 3.3575 -9.375 3.1875 C-9.375 2.5275 -9.375 1.8675 -9.375 1.1875 C-6.0588381 0.0821127 -3.48963365 0.01996358 0 0 Z " fill="#3C5768" transform="translate(849.375,1107.8125)"/>
<path d="M0 0 C5.03355809 1.96234842 8.73841503 4.79849051 12.625 8.5 C15.0634556 14.70697789 15.27823372 22.00225881 13.234375 28.39453125 C11.42143368 31.81178175 9.5197166 33.54356555 6 35 C5.67 35.99 5.34 36.98 5 38 C-0.97606925 40.4513488 -10.6553804 40.35080762 -16.62109375 37.94140625 C-21.29090863 34.68401175 -24.42006102 30.47978837 -26 25 C-26.74910389 19.42974034 -26.10997673 14.22470427 -24 9 C-21.75 6.3125 -21.75 6.3125 -19 4 C-18.175 3.236875 -17.35 2.47375 -16.5 1.6875 C-11.03315003 -0.94830266 -5.94919032 -0.920625 0 0 Z " fill="#3C5768" transform="translate(777,1108)"/>
<path d="M0 0 C3.91875 -0.020625 7.8375 -0.04125 11.875 -0.0625 C13.10976074 -0.071604 14.34452148 -0.08070801 15.61669922 -0.09008789 C16.58623535 -0.09258545 17.55577148 -0.09508301 18.5546875 -0.09765625 C19.54968262 -0.10289307 20.54467773 -0.10812988 21.56982422 -0.11352539 C24 0 24 0 26 1 C26 1.66 26 2.32 26 3 C26.804375 3.309375 27.60875 3.61875 28.4375 3.9375 C31 5 31 5 32 6 C32.36015175 11.40227629 32.35910997 14.52118671 29 19 C29.825 19.680625 30.65 20.36125 31.5 21.0625 C34 24 34 24 34.5 27.5 C33.96448117 31.24863178 33.41543818 33.10147418 31 36 C25.19202177 40.09109277 18.9158345 39.33581162 12.125 39.1875 C8.12375 39.125625 4.1225 39.06375 0 39 C0 26.13 0 13.26 0 0 Z " fill="#3A5567" transform="translate(423,1108)"/>
<path d="M0 0 C1.65 0 3.3 0 5 0 C5 111.54 5 223.08 5 338 C-15.13 338 -35.26 338 -56 338 C-57.75336305 336.24663695 -57.12245719 333.94615396 -57.12908131 331.61012262 C-57.12471205 330.44137097 -57.12471205 330.44137097 -57.12025452 329.24900818 C-57.12110894 328.42735973 -57.12196337 327.60571128 -57.12284368 326.75916439 C-57.124501 323.9845222 -57.11897302 321.20993943 -57.11352539 318.43530273 C-57.11324355 316.45488486 -57.1134012 314.47446688 -57.1139679 312.49404907 C-57.11425598 307.09964316 -57.10835748 301.70525926 -57.10139394 296.31085849 C-57.09516222 290.68006421 -57.09455675 285.04926948 -57.09336853 279.41847229 C-57.09025467 268.74766975 -57.08204056 258.0768774 -57.07201904 247.40607935 C-57.06085958 235.26118582 -57.05534788 223.1162918 -57.05032361 210.97139442 C-57.03985799 185.98092395 -57.0222575 160.99046255 -57 136 C-57.66 135.67 -58.32 135.34 -59 135 C-58.01 135 -57.02 135 -56 135 C-55.67 201.33 -55.34 267.66 -55 336 C-35.86 336.33 -16.72 336.66 3 337 C3 226.45 3 115.9 3 2 C-1.9988055 5.74910412 -6.44241372 9.16972038 -10.9375 13.375 C-11.96171416 14.32738828 -12.98645949 15.27920562 -14.01171875 16.23046875 C-14.51106934 16.69501465 -15.01041992 17.15956055 -15.52490234 17.63818359 C-18.96588761 20.81491577 -22.48673787 23.90371595 -26 27 C-26.66 26.67 -27.32 26.34 -28 26 C-10.59246427 9.33824166 -10.59246427 9.33824166 -2.6875 3.3828125 C-0.87435612 2.0890173 -0.87435612 2.0890173 0 0 Z " fill="#B9C6CB" transform="translate(843,385)"/>
<path d="M0 0 C5.0428125 -0.061875 5.0428125 -0.061875 10.1875 -0.125 C11.23832764 -0.14320801 12.28915527 -0.16141602 13.37182617 -0.18017578 C14.21205322 -0.1851709 15.05228027 -0.19016602 15.91796875 -0.1953125 C16.77156982 -0.20578613 17.6251709 -0.21625977 18.50463867 -0.22705078 C21.30726815 0.02795806 23.44729419 0.84458578 26 2 C26 2.66 26 3.32 26 4 C26.61875 4.28875 27.2375 4.5775 27.875 4.875 C30 6 30 6 32 8 C32.63662897 12.53681906 33.22412116 17.78384012 30.94921875 21.90234375 C29.625 23.25 29.625 23.25 27 25 C26.34 25 25.68 25 25 25 C25.78741859 26.46063143 26.5800905 27.91843173 27.375 29.375 C27.81585937 30.18710938 28.25671875 30.99921875 28.7109375 31.8359375 C29.9443893 34.10814302 29.9443893 34.10814302 32 36 C32 36.99 32 37.98 32 39 C28.9375 39.625 28.9375 39.625 25 39 C23.328125 36.80859375 23.328125 36.80859375 21.6875 34.0625 C19.31469304 30.10705617 19.31469304 30.10705617 15.3359375 28.11328125 C12.26835853 27.79717781 12.26835853 27.79717781 8 28 C8 31.63 8 35.26 8 39 C5.36 39 2.72 39 0 39 C0 26.13 0 13.26 0 0 Z " fill="#3F596A" transform="translate(501,1108)"/>
<path d="M0 0 C0.33 0 0.66 0 1 0 C1 110.55 1 221.1 1 335 C-18.14 335 -37.28 335 -57 335 C-58.75336305 333.24663695 -58.12245719 330.94615396 -58.12908131 328.61012262 C-58.12471205 327.44137097 -58.12471205 327.44137097 -58.12025452 326.24900818 C-58.12110894 325.42735973 -58.12196337 324.60571128 -58.12284368 323.75916439 C-58.124501 320.9845222 -58.11897302 318.20993943 -58.11352539 315.43530273 C-58.11324355 313.45488486 -58.1134012 311.47446688 -58.1139679 309.49404907 C-58.11425598 304.09964316 -58.10835748 298.70525926 -58.10139394 293.31085849 C-58.09516222 287.68006421 -58.09455675 282.04926948 -58.09336853 276.41847229 C-58.09025467 265.74766975 -58.08204056 255.0768774 -58.07201904 244.40607935 C-58.06085958 232.26118582 -58.05534788 220.1162918 -58.05032361 207.97139442 C-58.03985799 182.98092395 -58.0222575 157.99046255 -58 133 C-58.99 133 -59.98 133 -61 133 C-61.33 133.99 -61.66 134.98 -62 136 C-63.84765625 137.60546875 -63.84765625 137.60546875 -66.0625 139.1875 C-66.79597656 139.71730469 -67.52945313 140.24710938 -68.28515625 140.79296875 C-68.85105469 141.19128906 -69.41695312 141.58960938 -70 142 C-70.33 141.34 -70.66 140.68 -71 140 C-70.44570313 139.60167969 -69.89140625 139.20335937 -69.3203125 138.79296875 C-68.59585938 138.26316406 -67.87140625 137.73335937 -67.125 137.1875 C-66.40570312 136.66542969 -65.68640625 136.14335938 -64.9453125 135.60546875 C-62.76971345 133.96727223 -62.76971345 133.96727223 -61 131 C-59.35 131 -57.7 131 -56 131 C-56 197.66 -56 264.32 -56 333 C-37.52 333 -19.04 333 0 333 C0 223.11 0 113.22 0 0 Z " fill="#4C6978" transform="translate(845,387)"/>
<path d="M0 0 C4.27251632 0.708119 6.1139169 3.67641575 8.6796875 6.90234375 C9.2041748 7.53744873 9.72866211 8.17255371 10.26904297 8.8269043 C13.7796366 13.10168299 17.20072444 17.45055516 20.5 21.890625 C21.73770848 23.59938864 21.73770848 23.59938864 23.8046875 24.46484375 C23.8046875 16.87484375 23.8046875 9.28484375 23.8046875 1.46484375 C26.1146875 1.46484375 28.4246875 1.46484375 30.8046875 1.46484375 C30.8046875 13.67484375 30.8046875 25.88484375 30.8046875 38.46484375 C24.8046875 38.46484375 24.8046875 38.46484375 22.13671875 36.234375 C21.30527344 35.25855469 20.47382812 34.28273438 19.6171875 33.27734375 C18.35841797 31.83294922 18.35841797 31.83294922 17.07421875 30.359375 C15.07194015 27.80569437 13.45571453 25.2480036 11.8046875 22.46484375 C10.9178125 21.57796875 10.0309375 20.69109375 9.1171875 19.77734375 C8.3540625 19.01421875 7.5909375 18.25109375 6.8046875 17.46484375 C6.8046875 16.80484375 6.8046875 16.14484375 6.8046875 15.46484375 C6.1446875 15.46484375 5.4846875 15.46484375 4.8046875 15.46484375 C4.8046875 23.38484375 4.8046875 31.30484375 4.8046875 39.46484375 C2.1646875 39.46484375 -0.4753125 39.46484375 -3.1953125 39.46484375 C-3.21996099 34.07137387 -3.23814781 28.6779365 -3.25024414 23.28442383 C-3.25528481 21.448155 -3.26211727 19.61189021 -3.27075195 17.77563477 C-3.28282922 15.14207974 -3.28854331 12.50857759 -3.29296875 9.875 C-3.29813004 9.04895767 -3.30329132 8.22291534 -3.30860901 7.37184143 C-3.30880455 5.40248007 -3.25735402 3.43322761 -3.1953125 1.46484375 C-2.1953125 0.46484375 -2.1953125 0.46484375 0 0 Z " fill="#3E596A" transform="translate(712.1953125,1107.53515625)"/>
<path d="M0 0 C9.57 0 19.14 0 29 0 C29 1.98 29 3.96 29 6 C28 7 28 7 26.05053711 7.11352539 C25.2178833 7.10828857 24.38522949 7.10305176 23.52734375 7.09765625 C22.62822266 7.09443359 21.72910156 7.09121094 20.80273438 7.08789062 C19.85720703 7.07951172 18.91167969 7.07113281 17.9375 7.0625 C16.98810547 7.05798828 16.03871094 7.05347656 15.06054688 7.04882812 C12.70700469 7.03700128 10.35349468 7.01906521 8 7 C8 9.97 8 12.94 8 16 C13.94 16 19.88 16 26 16 C26 17.98 26 19.96 26 22 C19.73 22 13.46 22 7 22 C7 25.63 7 29.26 7 33 C14.59 33 22.18 33 30 33 C30 34.98 30 36.96 30 39 C20.1 39 10.2 39 0 39 C0 26.13 0 13.26 0 0 Z " fill="#455F6F" transform="translate(588,1108)"/>
<path d="M0 0 C9.57 0 19.14 0 29 0 C29 1.98 29 3.96 29 6 C28 7 28 7 26.05053711 7.11352539 C25.2178833 7.10828857 24.38522949 7.10305176 23.52734375 7.09765625 C22.62822266 7.09443359 21.72910156 7.09121094 20.80273438 7.08789062 C19.85720703 7.07951172 18.91167969 7.07113281 17.9375 7.0625 C16.98810547 7.05798828 16.03871094 7.05347656 15.06054688 7.04882812 C12.70700469 7.03700128 10.35349468 7.01906521 8 7 C8 9.97 8 12.94 8 16 C13.94 16 19.88 16 26 16 C26 17.98 26 19.96 26 22 C19.73 22 13.46 22 7 22 C7 25.63 7 29.26 7 33 C14.26 33 21.52 33 29 33 C29 34.98 29 36.96 29 39 C19.43 39 9.86 39 0 39 C0 26.13 0 13.26 0 0 Z " fill="#2D4A5D" transform="translate(464,1108)"/>
<path d="M0 0 C1.16781006 0.00523682 2.33562012 0.01047363 3.53881836 0.01586914 C4.79887695 0.0190918 6.05893555 0.02231445 7.35717773 0.02563477 C8.6976732 0.03399136 10.03816799 0.04245632 11.37866211 0.05102539 C12.72306153 0.05603879 14.06746271 0.06060197 15.41186523 0.06469727 C18.71334151 0.07653051 22.01473014 0.09301568 25.31616211 0.11352539 C25.35870567 2.11307285 25.35696994 4.11394175 25.31616211 6.11352539 C24.31616211 7.11352539 24.31616211 7.11352539 22.36669922 7.22705078 C21.53404541 7.22181396 20.7013916 7.21657715 19.84350586 7.21118164 C18.94438477 7.20795898 18.04526367 7.20473633 17.11889648 7.20141602 C16.17336914 7.19303711 15.2278418 7.1846582 14.25366211 7.17602539 C13.30426758 7.17151367 12.35487305 7.16700195 11.37670898 7.16235352 C9.0231668 7.15052667 6.66965679 7.1325906 4.31616211 7.11352539 C4.31616211 10.41352539 4.31616211 13.71352539 4.31616211 17.11352539 C9.92616211 17.11352539 15.53616211 17.11352539 21.31616211 17.11352539 C21.31616211 18.76352539 21.31616211 20.41352539 21.31616211 22.11352539 C15.37616211 22.11352539 9.43616211 22.11352539 3.31616211 22.11352539 C3.31616211 25.74352539 3.31616211 29.37352539 3.31616211 33.11352539 C10.57616211 33.11352539 17.83616211 33.11352539 25.31616211 33.11352539 C25.31616211 35.09352539 25.31616211 37.07352539 25.31616211 39.11352539 C15.74616211 39.11352539 6.17616211 39.11352539 -3.68383789 39.11352539 C-3.70674574 33.7199995 -3.72667315 28.32664118 -3.73876953 22.93310547 C-3.74381021 21.09683664 -3.75064266 19.26057185 -3.75927734 17.42431641 C-3.77135461 14.79076138 -3.7770687 12.15725923 -3.78149414 9.52368164 C-3.78665543 8.69763931 -3.79181671 7.87159698 -3.7971344 7.02052307 C-3.79732994 5.05116172 -3.74587941 3.08190926 -3.68383789 1.11352539 C-2.68383789 0.11352539 -2.68383789 0.11352539 0 0 Z " fill="#2D4A5D" transform="translate(940.683837890625,1107.886474609375)"/>
<path d="M0 0 C2.31 0 4.62 0 7 0 C7 5.28 7 10.56 7 16 C13.6 16 20.2 16 27 16 C27 10.72 27 5.44 27 0 C29.31 0 31.62 0 34 0 C34 12.54 34 25.08 34 38 C31.69 38 29.38 38 27 38 C27 32.39 27 26.78 27 21 C20.4 21 13.8 21 7 21 C7 26.61 7 32.22 7 38 C4.69 38 2.38 38 0 38 C0 25.46 0 12.92 0 0 Z " fill="#375264" transform="translate(665,1109)"/>
<path d="M0 0 C1.1446875 -0.00257812 2.289375 -0.00515625 3.46875 -0.0078125 C6.5 0.125 6.5 0.125 9.5 1.125 C9.5 1.785 9.5 2.445 9.5 3.125 C11.975 3.62 11.975 3.62 14.5 4.125 C14.5 5.445 14.5 6.765 14.5 8.125 C13.84 8.785 13.18 9.445 12.5 10.125 C11.51 10.125 10.52 10.125 9.5 10.125 C9.5 9.465 9.5 8.805 9.5 8.125 C4.18758432 6.64729357 -1.53338472 5.72706259 -6.671875 8.1484375 C-10.23955882 10.81682912 -11.91365386 13.19967822 -12.625 17.625 C-12.76692263 21.84719834 -11.95301434 24.60901277 -9.5 28.125 C-6.66632239 30.90816642 -5.15943204 32.04769261 -1.16796875 32.515625 C-0.01941406 32.46921875 1.12914062 32.4228125 2.3125 32.375 C4.354375 32.2925 6.39625 32.21 8.5 32.125 C8.5 27.835 8.5 23.545 8.5 19.125 C10.81 19.125 13.12 19.125 15.5 19.125 C15.5 24.405 15.5 29.685 15.5 35.125 C10.7191579 38.94967368 6.47136186 39.55893582 0.4375 39.625 C-0.24699219 39.64304687 -0.93148437 39.66109375 -1.63671875 39.6796875 C-6.72243843 39.62077955 -9.57638045 38.27535146 -13.5 35.125 C-18.32903878 30.07645946 -20.20572558 26.16583564 -20.875 19.25 C-20.70268433 13.25341457 -18.15611494 8.70225232 -13.875 4.625 C-11.5 3.125 -11.5 3.125 -9.5 3.125 C-9.5 2.465 -9.5 1.805 -9.5 1.125 C-6.13849548 0.00449849 -3.53713274 -0.00796652 0 0 Z " fill="#3D5769" transform="translate(895.5,1107.875)"/>
<path d="M0 0 C1.68301824 2.52452735 2.48759331 4.13433886 3.375 6.9375 C3.6328125 7.74058594 3.890625 8.54367187 4.15625 9.37109375 C4.4346875 10.23863281 4.713125 11.10617187 5 12 C5.62461626 13.83346411 6.24964062 15.66678922 6.875 17.5 C8.60148008 22.67944024 10.19896719 27.89095324 11.75 33.125 C11.97284668 33.87201172 12.19569336 34.61902344 12.42529297 35.38867188 C14 40.75727244 14 40.75727244 14 43 C5.09 43 -3.82 43 -13 43 C-12 34 -12 34 -11 31 C-10.34 31 -9.68 31 -9 31 C-8.90203125 30.37996094 -8.8040625 29.75992188 -8.703125 29.12109375 C-7.73496386 23.38724283 -6.51896461 17.75180828 -5.0625 12.125 C-4.74410156 10.89007812 -4.42570313 9.65515625 -4.09765625 8.3828125 C-3.06950981 5.21421884 -1.84139279 2.75946611 0 0 Z " fill="#F0F2F3" transform="translate(832,974)"/>
<path d="M0 0 C1.625 0.828125 1.625 0.828125 3.8125 2.328125 C3.4825 3.978125 3.1525 5.628125 2.8125 7.328125 C2.10480469 7.16570312 1.39710938 7.00328125 0.66796875 6.8359375 C-2.24160606 6.31850285 -4.92262902 6.19506942 -7.875 6.203125 C-8.82761719 6.20054688 -9.78023437 6.19796875 -10.76171875 6.1953125 C-13.19746498 6.16742091 -13.19746498 6.16742091 -15.1875 7.328125 C-15.43780977 9.74432323 -15.43780977 9.74432323 -15.1875 12.328125 C-11.1870866 14.99506727 -7.02483347 15.87147515 -2.4140625 17.1328125 C1.04832653 18.41548931 3.21639017 19.70810993 5.8125 22.328125 C7.10318846 26.73730919 6.1098279 30.64674856 4.3125 34.765625 C0.19115267 38.99000601 -4.61234013 39.38108058 -10.25 39.578125 C-14.28856733 39.32170803 -17.37517537 38.59889988 -21.1875 37.328125 C-21.1875 36.668125 -21.1875 36.008125 -21.1875 35.328125 C-21.8475 35.328125 -22.5075 35.328125 -23.1875 35.328125 C-22.6925 32.358125 -22.6925 32.358125 -22.1875 29.328125 C-21.445 29.658125 -20.7025 29.988125 -19.9375 30.328125 C-14.70854588 31.72251276 -9.57444505 31.68837171 -4.1875 31.328125 C-2.89116379 30.26167385 -2.89116379 30.26167385 -3.125 27.765625 C-3.145625 26.96125 -3.16625 26.156875 -3.1875 25.328125 C-4.29609375 24.95300781 -5.4046875 24.57789063 -6.546875 24.19140625 C-8.01071005 23.67531056 -9.4742358 23.15833699 -10.9375 22.640625 C-11.66710937 22.39634766 -12.39671875 22.15207031 -13.1484375 21.90039062 C-17.77875632 20.23768523 -20.5887598 18.73061804 -23.1875 14.328125 C-23.95672688 11.22999744 -23.8540889 8.44640527 -23.1875 5.328125 C-17.72600049 -1.75706356 -8.3537405 -2.56579172 0 0 Z " fill="#415B6C" transform="translate(995.1875,1108.671875)"/>
<path d="M0 0 C3.28763709 2.38514848 4.76334986 3.54269082 6.1875 7.3125 C6.87303888 11.93988745 6.8627485 15.84427015 4.3125 19.875 C3.61125 20.679375 2.91 21.48375 2.1875 22.3125 C1.5275 22.3125 0.8675 22.3125 0.1875 22.3125 C0.1875 22.9725 0.1875 23.6325 0.1875 24.3125 C-4.75525772 25.96008591 -9.72475178 26.10120488 -14.625 24.25 C-18.6897213 20.64981828 -20.99749923 16.71285828 -21.375 11.3125 C-21.13124747 6.67217403 -18.9568641 3.60268968 -15.8125 0.3125 C-11.27836463 -3.2835384 -4.87246066 -2.54978344 0 0 Z " fill="#F5F6F7" transform="translate(856.8125,1115.6875)"/>
<path d="M0 0 C3.3737101 2.05056357 6.22043124 4.44086248 8 8 C8.60110663 12.58819366 9.04707002 17.09473018 6.765625 21.24609375 C3.81675111 24.75700548 1.65005316 26.69727857 -3.0859375 27.23828125 C-7.12225906 27.36915174 -9.39347675 27.361333 -12.9375 25.25 C-17.19053423 20.6103263 -17.3806555 16.7615489 -17.25 10.62890625 C-16.82158926 6.12389955 -15.23287483 4.05156971 -11.875 1.1875 C-7.81412371 -0.48981847 -4.32002884 -0.93625198 0 0 Z " fill="#F8F9F9" transform="translate(776,1114)"/>
<path d="M0 0 C1.12148438 -0.01417969 2.24296875 -0.02835938 3.3984375 -0.04296875 C6.57384842 0.18384632 8.76734718 0.83359332 11.625 2.1875 C11.625 2.8475 11.625 3.5075 11.625 4.1875 C12.615 4.5175 13.605 4.8475 14.625 5.1875 C13.965 6.8375 13.305 8.4875 12.625 10.1875 C7.875 9.4375 7.875 9.4375 5.625 7.1875 C-0.47619193 6.78742184 -4.51015561 7.19802473 -9.625 10.75 C-12.21633692 14.35936214 -12.56591679 17.7964138 -12.375 22.1875 C-10.78963061 26.85553208 -8.68492664 29.75145451 -4.375 32.1875 C1.17631144 33.08580312 4.98632014 32.46186226 9.625 29.1875 C10.615 29.1875 11.605 29.1875 12.625 29.1875 C13.8125 31.4375 13.8125 31.4375 14.625 34.1875 C12.9608761 37.34057687 12.04947685 38.04600772 8.625 39.1875 C6.00460286 39.36181213 3.43437916 39.46434435 0.8125 39.5 C-0.23647461 39.54350586 -0.23647461 39.54350586 -1.30664062 39.58789062 C-6.44316607 39.65035539 -9.29359839 38.55047583 -13.375 35.1875 C-14.75 32.9375 -14.75 32.9375 -15.375 31.1875 C-16.035 31.1875 -16.695 31.1875 -17.375 31.1875 C-20.60909566 26.33635651 -21.1208693 20.95200415 -20.375 15.1875 C-18.45107688 9.0100842 -14.70608959 4.76217492 -9.375 1.1875 C-6.0588381 0.0821127 -3.48963365 0.01996358 0 0 Z " fill="#3C5768" transform="translate(364.375,1107.8125)"/>
<path d="M0 0 C5.53350044 0.94916271 6.70012543 2.56873986 10 7 C7.33333333 5.66666667 4.66666667 4.33333333 2 3 C2 79.89 2 156.78 2 236 C20.48 236 38.96 236 58 236 C58 236.33 58 236.66 58 237 C50.58540058 237.02312883 43.17080889 237.04091785 35.75618076 237.05181217 C32.31359652 237.05703982 28.87103688 237.06413531 25.4284668 237.07543945 C21.47444957 237.08834235 17.52044244 237.09322918 13.56640625 237.09765625 C11.70394005 237.10539818 11.70394005 237.10539818 9.80384827 237.11329651 C8.09218727 237.11340981 8.09218727 237.11340981 6.34594727 237.11352539 C5.335569 237.115746 4.32519073 237.11796661 3.28419495 237.12025452 C1 237 1 237 0 236 C-0.09801911 232.96597636 -0.12991072 229.95470393 -0.12025452 226.92027283 C-0.12110894 225.95570005 -0.12196337 224.99112726 -0.12284368 223.997325 C-0.12450142 220.73900229 -0.11897233 217.48073014 -0.11352539 214.22241211 C-0.11324356 211.89717103 -0.11340118 209.57192987 -0.1139679 207.24668884 C-0.11425602 200.9122316 -0.10835695 194.57779312 -0.10139394 188.24334025 C-0.09579342 182.30072885 -0.09477212 176.35811821 -0.09374207 170.41550452 C-0.09155124 158.64182693 -0.08489033 146.86815626 -0.07543945 135.09448242 C-0.06626612 123.65470413 -0.0591849 112.21492771 -0.05493164 100.77514648 C-0.05466892 100.07047825 -0.05440619 99.36581002 -0.05413551 98.6397882 C-0.05283051 95.10481803 -0.05156679 91.56984785 -0.05032361 88.03487766 C-0.03995004 58.68991398 -0.02225678 29.34495706 0 0 Z " fill="#406070" transform="translate(492,485)"/>
<path d="M0 0 C1.25425781 0.02707031 2.50851562 0.05414062 3.80078125 0.08203125 C4.75339844 0.11683594 5.70601562 0.15164063 6.6875 0.1875 C6.6875 0.8475 6.6875 1.5075 6.6875 2.1875 C7.656875 2.435 8.62625 2.6825 9.625 2.9375 C12.6875 4.1875 12.6875 4.1875 13.6875 6.1875 C13.6875 6.8475 13.6875 7.5075 13.6875 8.1875 C13.0275 8.8475 12.3675 9.5075 11.6875 10.1875 C9.0625 9.8125 9.0625 9.8125 6.6875 9.1875 C6.6875 8.5275 6.6875 7.8675 6.6875 7.1875 C-1.92105046 6.47107691 -1.92105046 6.47107691 -9.3125 10.1875 C-11.53561404 13.65459482 -11.69396472 16.87857859 -11.9375 20.9375 C-12.01226563 22.10796875 -12.08703125 23.2784375 -12.1640625 24.484375 C-12.23753906 25.82242187 -12.23753906 25.82242187 -12.3125 27.1875 C-11.6525 27.1875 -10.9925 27.1875 -10.3125 27.1875 C-9.2915625 28.425 -9.2915625 28.425 -8.25 29.6875 C-4.69578857 32.71236079 -2.96940582 32.8021528 1.5390625 32.5625 C4.38473468 32.06580086 6.34663688 30.83987396 8.6875 29.1875 C9.6775 29.1875 10.6675 29.1875 11.6875 29.1875 C12.3475 30.8375 13.0075 32.4875 13.6875 34.1875 C10.0625 37.1875 10.0625 37.1875 6.6875 37.1875 C6.6875 37.8475 6.6875 38.5075 6.6875 39.1875 C4.31124823 39.29633596 1.94006024 39.37516696 -0.4375 39.4375 C-1.10265625 39.47101563 -1.7678125 39.50453125 -2.453125 39.5390625 C-7.60450753 39.64007 -10.38964393 38.46511192 -14.3125 35.1875 C-15.95703125 33.1171875 -15.95703125 33.1171875 -17.125 31.0625 C-17.52332031 30.37929687 -17.92164063 29.69609375 -18.33203125 28.9921875 C-20.98181798 24.1148908 -21.04328162 19.42135251 -19.81640625 13.9921875 C-17.92617762 8.37489789 -14.88305101 5.08015349 -10.10546875 1.5625 C-6.55023723 -0.18776783 -3.94152341 -0.11051 0 0 Z " fill="#3D5869" transform="translate(643.3125,1107.8125)"/>
<path d="M0 0 C3.1875 -0.5 3.1875 -0.5 7 0 C10.22650093 3.43070985 12.03149636 7.4253658 13 12 C13.66 12 14.32 12 15 12 C15.99 13.98 16.98 15.96 18 18 C19.27118733 15.93771746 20.54195965 13.87518109 21.8125 11.8125 C22.16892578 11.23435547 22.52535156 10.65621094 22.89257812 10.06054688 C24.51085289 7.4327062 26.09205778 4.8252781 27.53125 2.09375 C28.0159375 1.4028125 28.500625 0.711875 29 0 C32.6875 -0.3125 32.6875 -0.3125 36 0 C35.67 1.65 35.34 3.3 35 5 C34.34 5 33.68 5 33 5 C32.731875 5.721875 32.46375 6.44375 32.1875 7.1875 C30.63105743 10.87381134 28.55389973 14.11376043 26.4375 17.5 C23.56075335 22.50303765 22.69909011 26.53289308 22.375 32.3125 C22.30023438 33.56675781 22.22546875 34.82101562 22.1484375 36.11328125 C22.09945313 37.06589844 22.05046875 38.01851562 22 39 C19.36 39 16.72 39 14 39 C13.98582031 38.02160156 13.97164063 37.04320312 13.95703125 36.03515625 C13.69025195 28.70233069 13.26655497 22.89501802 9.05859375 16.63671875 C8 15 8 15 8 13 C7.34 13 6.68 13 6 13 C5.18162558 11.58671871 4.37053781 10.16921654 3.5625 8.75 C3.11003906 7.96109375 2.65757812 7.1721875 2.19140625 6.359375 C1.10688398 4.21166532 0.46851284 2.34794939 0 0 Z " fill="#3F596A" transform="translate(382,1108)"/>
<path d="M0 0 C10.89 0 21.78 0 33 0 C33 2.31 33 4.62 33 7 C28.71 7 24.42 7 20 7 C20 17.56 20 28.12 20 39 C17.69 39 15.38 39 13 39 C13 28.44 13 17.88 13 7 C8.71 7 4.42 7 0 7 C0 4.69 0 2.38 0 0 Z " fill="#415B6C" transform="translate(551,1108)"/>
<path d="M0 0 C2.64 0 5.28 0 8 0 C8 10.89 8 21.78 8 33 C14.6 33 21.2 33 28 33 C28 34.98 28 36.96 28 39 C18.76 39 9.52 39 0 39 C0 26.13 0 13.26 0 0 Z " fill="#445E6F" transform="translate(799,1108)"/>
<path d="M0 0 C6.12767526 1.22553505 6.48181521 2.27558042 10 7 C7.33333333 5.66666667 4.66666667 4.33333333 2 3 C1.67 79.89 1.34 156.78 1 236 C0.67 236 0.34 236 0 236 C0 158.12 0 80.24 0 0 Z " fill="#718C98" transform="translate(492,485)"/>
<path d="M0 0 C2.31 0 4.62 0 7 0 C7 12.54 7 25.08 7 38 C4.69 38 2.38 38 0 38 C0 25.46 0 12.92 0 0 Z " fill="#3A5567" transform="translate(920,1109)"/>
<path d="M0 0 C12.16864363 -0.49166237 12.16864363 -0.49166237 15.90625 1.71875 C18 4 18 4 18.48828125 6.359375 C18.43027344 7.14828125 18.37226562 7.9371875 18.3125 8.75 C18.24482422 9.94882813 18.24482422 9.94882813 18.17578125 11.171875 C18.11777344 11.77515625 18.05976562 12.3784375 18 13 C11.8168465 16.29768187 6.98425466 16.2586761 0 16 C0 10.72 0 5.44 0 0 Z " fill="#EAEDEF" transform="translate(508,1114)"/>
<path d="M0 0 C1.32 0 2.64 0 4 0 C4.23228351 10.27477947 4.40967297 20.54892889 4.51812172 30.82580471 C4.57018888 35.5986027 4.64073487 40.36959735 4.75439453 45.14135742 C4.86351249 49.75159816 4.92293489 54.36011136 4.94877243 58.97154427 C4.96716958 60.725558 5.00309913 62.47948305 5.05730057 64.23275566 C5.46558874 77.9943107 5.46558874 77.9943107 1.70721436 83.13772583 C-0.75877624 85.37451605 -3.16690487 87.2597275 -6 89 C-6 88.01 -6 87.02 -6 86 C-4.87487024 85.25320917 -3.71596151 84.55686042 -2.54272461 83.88818359 C0.34266349 81.50951176 0.9523354 80.2647021 1.6257019 76.52520752 C1.90597086 71.94702389 1.78711855 67.37150999 1.68359375 62.7890625 C1.67052818 61.09371996 1.66056853 59.39835089 1.65357971 57.70297241 C1.62692881 53.25366471 1.55823453 48.805972 1.48065186 44.3572998 C1.40887698 39.81264085 1.37703797 35.26771935 1.34179688 30.72265625 C1.26685867 21.81439691 1.14748253 12.90733306 1 4 C-4.37272917 7.50816094 -8.8543307 11.45575086 -13.51171875 15.85546875 C-16 18 -16 18 -19 19 C-19 17 -19 17 -17.56640625 15.5546875 C-16.90511719 15.00039063 -16.24382813 14.44609375 -15.5625 13.875 C-11.58378677 10.50621429 -7.7229439 7.0296018 -3.8828125 3.50390625 C-2 2 -2 2 0 2 C0 1.34 0 0.68 0 0 Z " fill="#748A95" transform="translate(843,280)"/>
<path d="M0 0 C9.57 0 19.14 0 29 0 C29 1.98 29 3.96 29 6 C28 7 28 7 26.05053711 7.11352539 C25.2178833 7.10828857 24.38522949 7.10305176 23.52734375 7.09765625 C22.62822266 7.09443359 21.72910156 7.09121094 20.80273438 7.08789062 C19.85720703 7.07951172 18.91167969 7.07113281 17.9375 7.0625 C16.98810547 7.05798828 16.03871094 7.05347656 15.06054688 7.04882812 C12.70700469 7.03700128 10.35349468 7.01906521 8 7 C8 9.97 8 12.94 8 16 C13.94 16 19.88 16 26 16 C26 16.33 26 16.66 26 17 C19.73 17 13.46 17 7 17 C7 13.37 7 9.74 7 6 C13.6 6 20.2 6 27 6 C27 4.68 27 3.36 27 2 C18.75 2 10.5 2 2 2 C2 13.88 2 25.76 2 38 C10.91 38 19.82 38 29 38 C29 38.33 29 38.66 29 39 C19.43 39 9.86 39 0 39 C0 26.13 0 13.26 0 0 Z " fill="#738793" transform="translate(464,1108)"/>
<path d="M0 0 C2.77141717 -0.08089542 5.54047819 -0.14044062 8.3125 -0.1875 C9.09818359 -0.21263672 9.88386719 -0.23777344 10.69335938 -0.26367188 C11.45068359 -0.27333984 12.20800781 -0.28300781 12.98828125 -0.29296875 C14.03302612 -0.31653442 14.03302612 -0.31653442 15.09887695 -0.34057617 C17.59408446 0.1064271 18.46035285 1.02457588 20 3 C20.4375 5.5 20.4375 5.5 20 8 C17.42746777 10.79854281 15.95715884 11.00322599 12.109375 11.29296875 C10.65595991 11.27314945 9.20268833 11.23754845 7.75 11.1875 C6.63238281 11.16719727 6.63238281 11.16719727 5.4921875 11.14648438 C3.66114584 11.11127204 1.83047831 11.05746851 0 11 C0 7.37 0 3.74 0 0 Z " fill="#EFF1F3" transform="translate(430,1130)"/>
<path d="M0 0 C1.32 0 2.64 0 4 0 C4 0.66 4 1.32 4 2 C4.556875 2.20625 5.11375 2.4125 5.6875 2.625 C8.92501302 4.55000774 10.68231141 7.03850902 13 10 C9.6092481 8.54682061 7.58699688 6.58699688 5 4 C4.01 3.67 3.02 3.34 2 3 C2 29.07 2 55.14 2 82 C1.34 82 0.68 82 0 82 C0 54.94 0 27.88 0 0 Z " fill="#9BAEB7" transform="translate(491,377)"/>
<path d="M0 0 C2.43816585 -0.0809723 4.87364384 -0.14046972 7.3125 -0.1875 C8.34793945 -0.22520508 8.34793945 -0.22520508 9.40429688 -0.26367188 C14.50537593 -0.33760056 14.50537593 -0.33760056 16.96875 1.34375 C18.38463447 3.61774627 18.21262595 5.37761333 18 8 C17.01 8.33 16.02 8.66 15 9 C15 9.66 15 10.32 15 11 C10.05 11 5.1 11 0 11 C0 7.37 0 3.74 0 0 Z " fill="#EBEEEF" transform="translate(430,1114)"/>
<path d="M0 0 C2 1.375 2 1.375 4 3 C4 3.66 4 4.32 4 5 C-24.38 5 -52.76 5 -82 5 C-82.33 4.34 -82.66 3.68 -83 3 C-55.61 2.67 -28.22 2.34 0 2 C0 1.34 0 0.68 0 0 Z " fill="#446373" transform="translate(742,717)"/>
<path d="M0 0 C1.16781006 0.00523682 2.33562012 0.01047363 3.53881836 0.01586914 C4.79887695 0.0190918 6.05893555 0.02231445 7.35717773 0.02563477 C8.6976732 0.03399136 10.03816799 0.04245632 11.37866211 0.05102539 C12.72306153 0.05603879 14.06746271 0.06060197 15.41186523 0.06469727 C18.71334151 0.07653051 22.01473014 0.09301568 25.31616211 0.11352539 C25.35870567 2.11307285 25.35696994 4.11394175 25.31616211 6.11352539 C24.31616211 7.11352539 24.31616211 7.11352539 22.36669922 7.22705078 C21.53404541 7.22181396 20.7013916 7.21657715 19.84350586 7.21118164 C18.94438477 7.20795898 18.04526367 7.20473633 17.11889648 7.20141602 C16.17336914 7.19303711 15.2278418 7.1846582 14.25366211 7.17602539 C13.30426758 7.17151367 12.35487305 7.16700195 11.37670898 7.16235352 C9.0231668 7.15052667 6.66965679 7.1325906 4.31616211 7.11352539 C4.31616211 10.08352539 4.31616211 13.05352539 4.31616211 16.11352539 C3.98616211 16.11352539 3.65616211 16.11352539 3.31616211 16.11352539 C3.31616211 12.81352539 3.31616211 9.51352539 3.31616211 6.11352539 C9.91616211 6.11352539 16.51616211 6.11352539 23.31616211 6.11352539 C23.31616211 4.79352539 23.31616211 3.47352539 23.31616211 2.11352539 C14.73616211 2.11352539 6.15616211 2.11352539 -2.68383789 2.11352539 C-2.68383789 13.99352539 -2.68383789 25.87352539 -2.68383789 38.11352539 C6.22616211 38.11352539 15.13616211 38.11352539 24.31616211 38.11352539 C24.31616211 36.46352539 24.31616211 34.81352539 24.31616211 33.11352539 C24.64616211 33.11352539 24.97616211 33.11352539 25.31616211 33.11352539 C25.31616211 35.09352539 25.31616211 37.07352539 25.31616211 39.11352539 C15.74616211 39.11352539 6.17616211 39.11352539 -3.68383789 39.11352539 C-3.70674574 33.7199995 -3.72667315 28.32664118 -3.73876953 22.93310547 C-3.74381021 21.09683664 -3.75064266 19.26057185 -3.75927734 17.42431641 C-3.77135461 14.79076138 -3.7770687 12.15725923 -3.78149414 9.52368164 C-3.78665543 8.69763931 -3.79181671 7.87159698 -3.7971344 7.02052307 C-3.79732994 5.05116172 -3.74587941 3.08190926 -3.68383789 1.11352539 C-2.68383789 0.11352539 -2.68383789 0.11352539 0 0 Z " fill="#7C8E9A" transform="translate(940.683837890625,1107.886474609375)"/>
<path d="M0 0 C3.65141356 1.5255906 5.90118112 3.72480909 8.625 6.5625 C11.51070681 9.69042054 11.51070681 9.69042054 15 12 C14.75 14.375 14.75 14.375 14 17 C12 18.125 12 18.125 10 19 C9.505 20.485 9.505 20.485 9 22 C6.8203125 24.0078125 6.8203125 24.0078125 4.125 26.125 C3.24070312 26.82882812 2.35640625 27.53265625 1.4453125 28.2578125 C-1 30 -1 30 -4 31 C-4.268125 31.5775 -4.53625 32.155 -4.8125 32.75 C-6.5763914 36.09211003 -8.98041507 37.7353113 -12 40 C-12.66 40 -13.32 40 -14 40 C-14.22558594 40.56332031 -14.45117188 41.12664062 -14.68359375 41.70703125 C-16.37546538 44.65400053 -18.50398572 46.46030412 -21.0625 48.6875 C-21.96097656 49.47511719 -22.85945312 50.26273438 -23.78515625 51.07421875 C-24.51605469 51.70972656 -25.24695313 52.34523438 -26 53 C-26.33 53.33 -26.66 53.66 -27 54 C-29.3046875 54.30859375 -29.3046875 54.30859375 -32 54 C-34.1328125 52.28515625 -34.1328125 52.28515625 -36.125 50.0625 C-39.04316003 46.77768067 -39.04316003 46.77768067 -43 45 C-44.68359375 43.328125 -44.68359375 43.328125 -46.4375 41.25 C-47.0459375 40.53328125 -47.654375 39.8165625 -48.28125 39.078125 C-50.21515601 36.73985682 -52.13184428 34.39123933 -54 32 C-50.74792908 33.41738489 -48.68638933 35.12526412 -46.25 37.6875 C-42.89641662 41.13510908 -39.41813999 44.33461068 -35.76171875 47.45703125 C-34 49 -34 49 -32.51953125 50.76171875 C-31.06930136 52.22855092 -31.06930136 52.22855092 -29.015625 51.8828125 C-26.68465819 50.86188517 -25.47357072 49.74080714 -23.75 47.875 C-19.08645111 43.00174121 -14.02338449 38.65059753 -8.8125 34.375 C-6.00589555 32.08312453 -6.00589555 32.08312453 -3.6875 29.625 C-0.70179805 26.70873298 2.48210551 24.24826398 5.81640625 21.74609375 C8.04472132 19.96423895 10.02020894 18.05162022 12 16 C10.57937321 11.46052589 8.29324898 9.00269276 4.875 5.75 C3.23625846 4.18089337 1.60726463 2.60133377 0 1 C0 0.67 0 0.34 0 0 Z " fill="#8095A0" transform="translate(586,463)"/>
<path d="M0 0 C1.875 0.3125 1.875 0.3125 4 1 C4.66 1.99 5.32 2.98 6 4 C4.35 3.67 2.7 3.34 1 3 C0.9684576 12.77129942 0.97468709 22.54178721 1.02846622 32.31301117 C1.05226914 36.85083217 1.06330741 41.38792032 1.04467773 45.92578125 C1.02715921 50.30939491 1.04381933 54.69169534 1.08367729 59.07514954 C1.09293527 60.74316649 1.0901033 62.41129794 1.07469368 64.07926941 C0.73617419 74.8257364 0.73617419 74.8257364 5.55639648 84.08789062 C7.38282137 85.80824332 7.38282137 85.80824332 9 87 C6 87 6 87 2.84912109 84.63647461 C-2.16542729 78.42019084 -0.72522661 69.37222358 -0.5859375 61.81640625 C-0.57473651 60.03280569 -0.56620059 58.24918658 -0.56021118 56.46556091 C-0.53738363 51.78797776 -0.47851389 47.11152573 -0.4119873 42.43438721 C-0.35043289 37.65498147 -0.32316817 32.87539163 -0.29296875 28.09570312 C-0.22876384 18.7299738 -0.12645892 9.36508123 0 0 Z " fill="#506E7D" transform="translate(493,380)"/>
<path d="M0 0 C13.53 0 27.06 0 41 0 C41.495 2.97 41.495 2.97 42 6 C41.34 5.01 40.68 4.02 40 3 C37.12648517 2.70830659 34.47187156 2.60409795 31.59765625 2.63671875 C30.76415146 2.63622025 29.93064667 2.63572174 29.07188416 2.63520813 C27.30742004 2.63755066 25.54295271 2.64728976 23.77856445 2.66381836 C21.07668158 2.68737635 18.37578734 2.6843852 15.67382812 2.67773438 C13.96093161 2.68331221 12.24803926 2.69042276 10.53515625 2.69921875 C9.7257106 2.69830734 8.91626495 2.69739594 8.08229065 2.69645691 C4.21026319 2.74539988 2.29460953 2.80359364 -1 5 C-0.67 3.35 -0.34 1.7 0 0 Z " fill="#A7B4BD" transform="translate(812,1036)"/>
<path d="M0 0 C0.66 0.33 1.32 0.66 2 1 C-0.54748706 5.82681759 -3.56309485 8.63335724 -8.3125 11.296875 C-12.50211964 13.95192465 -15.88251197 17.42319624 -19.4765625 20.8203125 C-22 23 -22 23 -25 24 C-25 22 -25 22 -23.6015625 20.58984375 C-22.94929687 20.04457031 -22.29703125 19.49929688 -21.625 18.9375 C-18.34758738 16.15314946 -15.12371422 13.32607399 -11.9375 10.4375 C-8.01067037 6.89303555 -4.03481448 3.42082097 0 0 Z " fill="#95A8B1" transform="translate(787,331)"/>
<path d="M0 0 C3.12704096 1.37535062 5.11698121 2.9454879 7.4375 5.4375 C9.54448024 7.62586574 11.18164323 9.10898594 13.8125 10.6875 C16.3582733 12.21496398 16.73972741 13.39543664 18 16 C18.5775 16.28875 19.155 16.5775 19.75 16.875 C23.17396275 18.58698137 25.36150919 21.24157779 28 24 C27.67 24.66 27.34 25.32 27 26 C26.54109375 25.51789062 26.0821875 25.03578125 25.609375 24.5390625 C24.99578125 23.90742187 24.3821875 23.27578125 23.75 22.625 C23.14671875 21.99851562 22.5434375 21.37203125 21.921875 20.7265625 C20.0299412 19.02689839 18.31798691 18.01540134 16 17 C16 16.34 16 15.68 16 15 C15.34 15 14.68 15 14 15 C14 14.34 14 13.68 14 13 C13.44828125 12.77441406 12.8965625 12.54882812 12.328125 12.31640625 C9.30047473 10.60446306 7.18674251 8.41342989 4.75 5.9375 C3.85796875 5.03902344 2.9659375 4.14054688 2.046875 3.21484375 C0 1 0 1 0 0 Z " fill="#67818F" transform="translate(567,636)"/>
<path d="M0 0 C0.66 0.33 1.32 0.66 2 1 C1.38125 1.226875 0.7625 1.45375 0.125 1.6875 C-2.6219805 3.38416443 -2.86635273 5.05251711 -4 8 C-4.99 8.33 -5.98 8.66 -7 9 C-7 9.66 -7 10.32 -7 11 C-8.65 11.33 -10.3 11.66 -12 12 C-12.33 12.99 -12.66 13.98 -13 15 C-14.63264644 16.45961383 -16.32912023 17.84906752 -18.0625 19.1875 C-18.98160156 19.90292969 -19.90070312 20.61835937 -20.84765625 21.35546875 C-21.55792969 21.89816406 -22.26820313 22.44085937 -23 23 C-23.33 22.34 -23.66 21.68 -24 21 C-22.98679687 20.20335937 -22.98679687 20.20335937 -21.953125 19.390625 C-21.06109375 18.68421875 -20.1690625 17.9778125 -19.25 17.25 C-18.36828125 16.55390625 -17.4865625 15.8578125 -16.578125 15.140625 C-13.98412985 13.06394072 -13.98412985 13.06394072 -11.796875 10.734375 C-10 9 -10 9 -8 9 C-8 8.34 -8 7.68 -8 7 C-7.34 7 -6.68 7 -6 7 C-6 6.34 -6 5.68 -6 5 C-4.04072937 3.2856382 -2.04119788 1.61594832 0 0 Z " fill="#738A95" transform="translate(647,538)"/>
<path d="M0 0 C3.65141356 1.5255906 5.90118112 3.72480909 8.625 6.5625 C11.51070681 9.69042054 11.51070681 9.69042054 15 12 C14.75 14.375 14.75 14.375 14 17 C12 18.125 12 18.125 10 19 C9.67 19.99 9.34 20.98 9 22 C7.04402816 23.39712274 5.04563599 24.73779907 3 26 C4.38188453 22.78956118 5.92421903 20.95063635 8.625 18.75 C9.57246094 17.96882813 9.57246094 17.96882813 10.5390625 17.171875 C11.26222656 16.59179688 11.26222656 16.59179688 12 16 C10.57937321 11.46052589 8.29324898 9.00269276 4.875 5.75 C3.23625846 4.18089337 1.60726463 2.60133377 0 1 C0 0.67 0 0.34 0 0 Z " fill="#90A2AB" transform="translate(586,463)"/>
<path d="M0 0 C4 1 4 1 6 4 C4.35 3.67 2.7 3.34 1 3 C1 15.54 1 28.08 1 41 C0.67 41 0.34 41 0 41 C0 27.47 0 13.94 0 0 Z " fill="#395A6C" transform="translate(493,380)"/>
<path d="M0 0 C2.93879484 1.35236577 5.29232911 2.89942659 7.75 5 C8.67039062 5.7734375 8.67039062 5.7734375 9.609375 6.5625 C11 8 11 8 11 10 C11.66 10 12.32 10 13 10 C13 10.66 13 11.32 13 12 C13.556875 12.20625 14.11375 12.4125 14.6875 12.625 C17.92501302 14.55000774 19.68231141 17.03850902 22 20 C18.6092481 18.54682061 16.58699688 16.58699688 14 14 C13.01 13.67 12.02 13.34 11 13 C11 12.34 11 11.68 11 11 C10.01 10.67 9.02 10.34 8 10 C8 9.34 8 8.68 8 8 C7.34 8 6.68 8 6 8 C4.4921875 6.25 4.4921875 6.25 2.875 4 C2.33617187 3.2575 1.79734375 2.515 1.2421875 1.75 C0.62730469 0.88375 0.62730469 0.88375 0 0 Z " fill="#8098A3" transform="translate(619,684)"/>
<path d="M0 0 C0.66 0.33 1.32 0.66 2 1 C-1.34334944 4.89727716 -4.67511863 8.74732305 -8.375 12.3125 C-11.17026918 14.78303969 -11.17026918 14.78303969 -12 18 C-12.66 18 -13.32 18 -14 18 C-12.51513069 13.19862618 -9.83165816 10.29626512 -6.4375 6.75 C-5.93025391 6.20859375 -5.42300781 5.6671875 -4.90039062 5.109375 C-3.28495794 3.38854125 -1.66911695 1.66911695 0 0 Z " fill="#4C6879" transform="translate(472,958)"/>
<path d="M0 0 C1.1446875 -0.01417969 2.289375 -0.02835938 3.46875 -0.04296875 C6.5 0.1875 6.5 0.1875 9.5 2.1875 C8.47519531 2.15269531 7.45039063 2.11789062 6.39453125 2.08203125 C5.03387064 2.05387965 3.6731922 2.02658096 2.3125 2 C1.30219727 1.96229492 1.30219727 1.96229492 0.27148438 1.92382812 C-4.22893769 1.85796829 -6.91457935 2.46309434 -10.5 5.1875 C-11.386875 6.074375 -12.27375 6.96125 -13.1875 7.875 C-13.950625 8.638125 -14.71375 9.40125 -15.5 10.1875 C-16.16 10.1875 -16.82 10.1875 -17.5 10.1875 C-15.93989422 5.97521439 -13.0154607 3.84203155 -9.5 1.1875 C-6.15109379 0.07119793 -3.52460739 0.01984576 0 0 Z " fill="#81939E" transform="translate(364.5,1107.8125)"/>
<path d="M0 0 C2.475 0.99 2.475 0.99 5 2 C5 2.66 5 3.32 5 4 C5.87398438 4.36738281 5.87398438 4.36738281 6.765625 4.7421875 C9.36302236 6.20435874 10.83975831 7.84740414 12.75 10.125 C13.36359375 10.84945313 13.9771875 11.57390625 14.609375 12.3203125 C15.29773438 13.15175781 15.29773438 13.15175781 16 14 C15.01 14.495 15.01 14.495 14 15 C12.79557292 13.47005208 11.59114583 11.94010417 10.38671875 10.41015625 C8.94316909 8.72844923 8.94316909 8.72844923 6 8 C6 7.34 6 6.68 6 6 C5.01 5.67 4.02 5.34 3 5 C1.3125 2.4375 1.3125 2.4375 0 0 Z " fill="#698290" transform="translate(506,471)"/>
<path d="M0 0 C0.66 0.33 1.32 0.66 2 1 C-2.62 5.62 -7.24 10.24 -12 15 C-12 11.11566834 -10.82920314 10.32394504 -8.25 7.5 C-7.55390625 6.7265625 -6.8578125 5.953125 -6.140625 5.15625 C-4.19891408 3.20036601 -2.25069252 1.58156772 0 0 Z " fill="#4C6878" transform="translate(912,957)"/>
<path d="M0 0 C3.50373216 0.57881038 5.16793567 1.7850792 7.625 4.3125 C8.21539063 4.90675781 8.80578125 5.50101563 9.4140625 6.11328125 C10.99274729 7.99137178 12.00425102 9.76695897 13 12 C10 11 10 11 8.0625 8.5625 C6.08608065 6.10694869 4.87535256 5.12960279 2 4 C2 3.34 2 2.68 2 2 C1.34 2 0.68 2 0 2 C0 1.34 0 0.68 0 0 Z " fill="#A9B8BF" transform="translate(609,593)"/>
<path d="M0 0 C0.66 0.33 1.32 0.66 2 1 C2.061875 1.70125 2.12375 2.4025 2.1875 3.125 C3.43533488 7.54041573 6.66654155 9.97986924 10 13 C7 13 7 13 5.24609375 11.50390625 C4.64925781 10.86324219 4.05242188 10.22257813 3.4375 9.5625 C0.99710571 6.9103837 0.99710571 6.9103837 -2 5 C-1.125 1.125 -1.125 1.125 0 0 Z " fill="#7D95A1" transform="translate(627,580)"/>
<path d="M0 0 C0 2 0 2 -1.609375 3.65625 C-2.31578125 4.2646875 -3.0221875 4.873125 -3.75 5.5 C-4.44609375 6.1084375 -5.1421875 6.716875 -5.859375 7.34375 C-7.84460792 8.87976963 -9.71872045 9.9723966 -12 11 C-5.34883721 0 -5.34883721 0 0 0 Z " fill="#CED5DA" transform="translate(930,974)"/>
<path d="M0 0 C0.66 0.33 1.32 0.66 2 1 C1.071875 1.3403125 1.071875 1.3403125 0.125 1.6875 C-2.6219805 3.38416443 -2.86635273 5.05251711 -4 8 C-4.99 8.33 -5.98 8.66 -7 9 C-7 9.66 -7 10.32 -7 11 C-7.66 10.67 -8.32 10.34 -9 10 C-8.67 9.01 -8.34 8.02 -8 7 C-7.34 7 -6.68 7 -6 7 C-6 6.34 -6 5.68 -6 5 C-4.04072937 3.2856382 -2.04119788 1.61594832 0 0 Z " fill="#93A5AD" transform="translate(647,538)"/>
<path d="M0 0 C0.66 0.33 1.32 0.66 2 1 C0.92807816 2.3218362 -0.15802695 3.63217927 -1.25 4.9375 C-1.85328125 5.66839844 -2.4565625 6.39929688 -3.078125 7.15234375 C-5.10741134 9.10326334 -6.254407 9.61731779 -9 10 C-8.06409496 8.8944811 -7.12620142 7.79064547 -6.1875 6.6875 C-5.66542969 6.07261719 -5.14335938 5.45773437 -4.60546875 4.82421875 C-3.12827531 3.14575321 -1.59960869 1.56117966 0 0 Z " fill="#325263" transform="translate(588,512)"/>
<path d="M0 0 C2.475 0.99 2.475 0.99 5 2 C5 2.66 5 3.32 5 4 C5.66 4 6.32 4 7 4 C7 4.66 7 5.32 7 6 C7.99 6.33 8.98 6.66 10 7 C9.67 7.66 9.34 8.32 9 9 C7.68 8.34 6.36 7.68 5 7 C5 6.34 5 5.68 5 5 C4.34 5 3.68 5 3 5 C3 4.34 3 3.68 3 3 C2.34 3 1.68 3 1 3 C0.67 2.01 0.34 1.02 0 0 Z " fill="#7F95A2" transform="translate(522,486)"/>
<path d="M0 0 C0.66 0.33 1.32 0.66 2 1 C-0.10148204 4.98175544 -2.36905358 7.35039045 -6 10 C-6.66 9.67 -7.32 9.34 -8 9 C-5.36 6.03 -2.72 3.06 0 0 Z " fill="#577281" transform="translate(787,331)"/>
<path d="M0 0 C0.66 0.33 1.32 0.66 2 1 C0.87895467 2.31587941 -0.24696965 3.62760353 -1.375 4.9375 C-2.00148438 5.66839844 -2.62796875 6.39929688 -3.2734375 7.15234375 C-5 9 -5 9 -7 10 C-6.42424336 6.64749299 -5.40693737 5.06181371 -2.9375 2.75 C-2.38964844 2.22921875 -1.84179688 1.7084375 -1.27734375 1.171875 C-0.64505859 0.59179688 -0.64505859 0.59179688 0 0 Z " fill="#2E4E60" transform="translate(567,531)"/>
<path d="M0 0 C5.94 0 11.88 0 18 0 C18 0.33 18 0.66 18 1 C16.87980469 1.04898437 15.75960937 1.09796875 14.60546875 1.1484375 C13.13278797 1.22347856 11.66013293 1.29902582 10.1875 1.375 C9.44951172 1.4059375 8.71152344 1.436875 7.95117188 1.46875 C4.18106885 1.67346148 2.20349259 1.86433827 -1 4 C-0.67 2.68 -0.34 1.36 0 0 Z " fill="#E1E5E8" transform="translate(812,1037)"/>
<path d="M0 0 C0.66 0.33 1.32 0.66 2 1 C0.02 3.31 -1.96 5.62 -4 8 C-4.99 7.67 -5.98 7.34 -7 7 C-4.69 4.69 -2.38 2.38 0 0 Z " fill="#2C4E61" transform="translate(731,383)"/>
<path d="M0 0 C0.66 0.33 1.32 0.66 2 1 C-0.97 3.97 -3.94 6.94 -7 10 C-7 7 -7 7 -4.625 4.4375 C-3.75875 3.633125 -2.8925 2.82875 -2 2 C-1.34 1.34 -0.68 0.68 0 0 Z " fill="#667C8A" transform="translate(760,1110)"/>
<path d="M0 0 C2.31 0 4.62 0 7 0 C7.66 1.32 8.32 2.64 9 4 C6.69 3.34 4.38 2.68 2 2 C1.67 2.66 1.34 3.32 1 4 C0.67 2.68 0.34 1.36 0 0 Z " fill="#748794" transform="translate(382,1108)"/>
<path d="M0 0 C0.66 0.33 1.32 0.66 2 1 C-0.31 3.31 -2.62 5.62 -5 8 C-5.33 7.01 -5.66 6.02 -6 5 C-4.02 3.35 -2.04 1.7 0 0 Z " fill="#4F6777" transform="translate(838,1111)"/>
<path d="M0 0 C2.31 0 4.62 0 7 0 C6.67 1.65 6.34 3.3 6 5 C5.67 4.01 5.34 3.02 5 2 C3.02 2.33 1.04 2.66 -1 3 C-0.67 2.01 -0.34 1.02 0 0 Z " fill="#7D909C" transform="translate(411,1108)"/>
<path d="M0 0 C0.66 0.33 1.32 0.66 2 1 C1.0479279 2.00596297 0.08812654 3.00461563 -0.875 4 C-1.40867187 4.556875 -1.94234375 5.11375 -2.4921875 5.6875 C-4 7 -4 7 -6 7 C-4.60667426 3.63279613 -3.0210714 2.0140476 0 0 Z " fill="#5B7280" transform="translate(353,1111)"/>
<path d="M0 0 C0.33 0.99 0.66 1.98 1 3 C-1.97 5.475 -1.97 5.475 -5 8 C-5.66 7.67 -6.32 7.34 -7 7 C-4.69 4.69 -2.38 2.38 0 0 Z " fill="#305264" transform="translate(605,497)"/>
<path d="M0 0 C0 3.90838866 -1.50567876 5.11594107 -4 8 C-4.99 7.67 -5.98 7.34 -7 7 C-4.69 4.69 -2.38 2.38 0 0 Z " fill="#305264" transform="translate(745,475)"/>
<path d="M0 0 C0 0.99 0 1.98 0 3 C-2.5 5.1875 -2.5 5.1875 -5 7 C-5.66 6.67 -6.32 6.34 -7 6 C-4.69 4.02 -2.38 2.04 0 0 Z " fill="#325264" transform="translate(652,455)"/>
<path d="M0 0 C0.66 0.33 1.32 0.66 2 1 C-0.31 3.31 -2.62 5.62 -5 8 C-5 5 -5 5 -2.5 2.3125 C-1.675 1.549375 -0.85 0.78625 0 0 Z " fill="#556D7C" transform="translate(631,1111)"/>
<path d="M0 0 C0 0.99 0 1.98 0 3 C-2.5 5.1875 -2.5 5.1875 -5 7 C-5.66 6.67 -6.32 6.34 -7 6 C-4.69 4.02 -2.38 2.04 0 0 Z " fill="#355566" transform="translate(642,569)"/>
<path d="M0 0 C2.31 1.98 4.62 3.96 7 6 C6.01 6.33 5.02 6.66 4 7 C2 6 2 6 0.875 2.9375 C0.58625 1.968125 0.2975 0.99875 0 0 Z " fill="#6F8592" transform="translate(568,446)"/>
</svg>
